<svg height="1781" viewBox="0 0 1781 1781" width="1781" xmlns="http://www.w3.org/2000/svg" xmlns:xlink="http://www.w3.org/1999/xlink"><linearGradient id="a" x1="8.15138%" x2="99.983946%" y1="24.226563%" y2="100%"><stop offset="0" stop-color="#d7f9d8"/><stop offset="1" stop-color="#5fe3d3"/></linearGradient><path d="m1770.48677 1981.51349c2.48529 0 4.5 2.01472 4.5 4.5s-2.01471 4.5-4.5 4.5c-2.48528 0-4.5-2.01472-4.5-4.5s2.01472-4.5 4.5-4.5zm177.44696-12.9658c.45915 2.36208-1.08349 4.64912-3.44556 5.10827-2.36208.45914-4.64913-1.0835-5.10827-3.44557-.45914-2.36208 1.08349-4.64913 3.44557-5.10827 2.36207-.45914 4.64912 1.08349 5.10826 3.44557zm-349.74729-3.70024c2.36208.45914 3.90472 2.74619 3.44557 5.10826-.45914 2.36208-2.74619 3.90472-5.10826 3.44557-2.36208-.45914-3.90471-2.74619-3.44557-5.10826.45914-2.36208 2.74619-3.90471 5.10826-3.44557zm172.80529-37.74044c3.03757 0 5.5 2.46243 5.5 5.5 0 3.03756-2.46243 5.5-5.5 5.5s-5.5-2.46244-5.5-5.5c0-3.03757 2.46243-5.5 5.5-5.5zm-338.24905-12.86167c2.215.94021 3.24842 3.49801 2.30821 5.71301s-3.49801 3.24842-5.71301 2.30821-3.24842-3.49802-2.30821-5.71302 3.49802-3.24842 5.71301-2.3082zm681.40642 2.30442c.90141 2.23107-.17649 4.77045-2.40756 5.67186s-4.77045-.17649-5.67186-2.40756.17649-4.77045 2.40756-5.67186 4.77045.17649 5.67186 2.40756zm-175.6048-1.10109c.57393 2.9526-1.35437 5.81141-4.30696 6.38534-2.9526.57392-5.81141-1.35437-6.38534-4.30696-.57392-2.9526 1.35437-5.81141 4.30697-6.38534 2.95259-.57393 5.8114 1.35437 6.38533 4.30696zm-329.62195-4.54792c2.9526.57393 4.88089 3.43274 4.30696 6.38534-.57392 2.95259-3.43274 4.88089-6.38533 4.30696-2.9526-.57393-4.88089-3.43274-4.30696-6.38533.57392-2.9526 3.43273-4.88089 6.38533-4.30697zm161.89951-40.33204c3.58986 0 6.5 2.91015 6.5 6.5s-2.91014 6.5-6.5 6.5c-3.58985 0-6.5-2.91015-6.5-6.5s2.91015-6.5 6.5-6.5zm-317.40039-6.44203c2.76875 1.17526 4.06052 4.37252 2.88526 7.14126-1.17526 2.76875-4.37252 4.06053-7.14127 2.88526-2.76875-1.17526-4.06052-4.37251-2.88526-7.14126 1.17527-2.76875 4.37252-4.06053 7.14127-2.88526zm640.70178 2.61074c1.12676 2.78883-.22062 5.96306-3.00946 7.08982-2.78883 1.12676-5.96306-.22061-7.08982-3.00945s.22061-5.96306 3.00945-7.08983c2.78884-1.12676 5.96306.22062 7.08983 3.00946zm-165.79964-5.53189c.68871 3.54312-1.62524 6.97369-5.16835 7.66241-3.54312.68871-6.97369-1.62524-7.6624-5.16836-.68872-3.54311 1.62523-6.97369 5.16835-7.6624s6.97369 1.62524 7.6624 5.16835zm-308.50892-5.23916c3.54311.68871 5.85707 4.11929 5.16835 7.6624-.68871 3.54312-4.11928 5.85707-7.6624 5.16836-3.54311-.68871-5.85706-4.11929-5.16835-7.6624.68871-3.54312 4.11928-5.85707 7.6624-5.16836zm-339.96715-22.85066c1.99491 1.34558 2.52129 4.05358 1.17571 6.04848s-4.05357 2.52128-6.04848 1.1757c-1.9949-1.34557-2.52128-4.05357-1.1757-6.04847s4.05357-2.52128 6.04847-1.17571zm986.74958.71561c1.34557 1.9949.81919 4.70289-1.17571 6.04847s-4.7029.8192-6.04847-1.1757c-1.34558-1.9949-.8192-4.7029 1.1757-6.04848s4.7029-.8192 6.04848 1.17571zm-496.61994-21.93272c4.14214 0 7.5 3.35787 7.5 7.5 0 4.14214-3.35786 7.5-7.5 7.5s-7.5-3.35786-7.5-7.5c0-4.14213 3.35786-7.5 7.5-7.5zm304.27664 4.03878c1.35212 3.34661-.26473 7.15568-3.61134 8.50779-3.34661 1.35212-7.15567-.26473-8.50779-3.61134s.26474-7.15567 3.61134-8.50779c3.34661-1.35212 7.15568.26474 8.50779 3.61134zm-598.85301-3.7483c3.3225 1.41032 4.87263 5.24702 3.46231 8.56952-1.41031 3.3225-5.24702 4.87263-8.56952 3.46231-3.32249-1.41032-4.87262-5.24702-3.46231-8.56952 1.41032-3.3225 5.24702-4.87263 8.56952-3.46231zm155.77552-14.12016c4.13364.8035 6.83325 4.80584 6.02975 8.93947-.8035 4.13364-4.80583 6.83325-8.93947 6.02975-4.13363-.8035-6.83324-4.80583-6.02974-8.93947.80349-4.13363 4.80583-6.83324 8.93946-6.02975zm287.39589 5.93041c.8035 4.13364-1.89611 8.13597-6.02974 8.93947-4.13364.8035-8.13597-1.89611-8.93947-6.02975-.8035-4.13363 1.89611-8.13597 6.02975-8.93947 4.13363-.80349 8.13597 1.89612 8.93946 6.02975zm318.93284-14.4678c1.68197 2.49363 1.024 5.87863-1.46963 7.5606s-5.87862 1.024-7.5606-1.46963c-1.68197-2.49363-1.02399-5.87862 1.46964-7.5606 2.49362-1.68197 5.87862-1.02399 7.56059 1.46963zm-927.28198-1.76199c2.49363 1.68197 3.1516 5.06697 1.46963 7.5606-1.68198 2.49362-5.06697 3.1516-7.5606 1.46963-2.49363-1.68198-3.1516-5.06697-1.46963-7.5606 1.68198-2.49363 5.06697-3.1516 7.5606-1.46963zm742.65525-25.90812c1.57747 3.90437-.30886 8.34828-4.21324 9.92575-3.90437 1.57747-8.34828-.30886-9.92575-4.21323-1.57747-3.90438.30886-8.34829 4.21323-9.92576 3.90438-1.57747 8.34829.30886 9.92576 4.21324zm-555.02887-4.57301c3.87625 1.64537 5.68473 6.12153 4.03936 9.99778s-6.12152 5.68473-9.99777 4.03936-5.68473-6.12153-4.03936-9.99777c1.64537-3.87625 6.12152-5.68474 9.99777-4.03937zm272.74003-6.86655c4.69442 0 8.5 3.80558 8.5 8.5s-3.80558 8.5-8.5 8.5-8.5-3.80558-8.5-8.5 3.80558-8.5 8.5-8.5zm137.4001-4.77285c.91828 4.72415-2.16699 9.29825-6.89114 10.21653-4.72416.91828-9.29826-2.16699-10.21654-6.89114s2.16699-9.29825 6.89114-10.21653c4.72415-.91829 9.29825 2.16698 10.21654 6.89114zm-265.13874-7.45291c4.72415.91828 7.80942 5.49238 6.89113 10.21654-.91828 4.72415-5.49238 7.80942-10.21653 6.89113-4.72415-.91828-7.80942-5.49238-6.89114-10.21653s5.49238-7.80942 10.21654-6.89114zm-300.95168 2.40833c2.99235 2.01836 3.78192 6.08036 1.76355 9.07271-2.01836 2.99235-6.08036 3.78193-9.07271 1.76356s-3.78192-6.08036-1.76356-9.07272c2.01837-2.99235 6.08036-3.78192 9.07272-1.76355zm865.99545 1.50782c2.01837 2.99236 1.2288 7.05435-1.76356 9.07272-2.99235 2.01836-7.05434 1.22879-9.07271-1.76356-2.01837-2.99236-1.2288-7.05435 1.76356-9.07272 2.99235-2.01836 7.05434-1.22879 9.07271 1.76356zm-1061.54381-18.50867c1.7015 1.7015 1.7015 4.46018 0 6.16168s-4.46018 1.7015-6.16168 0-1.7015-4.46018 0-6.16168c1.7015-1.70151 4.46018-1.70151 6.16168 0zm1254.56345-.75231c1.7015 1.70151 1.7015 4.46019 0 6.16169-1.70151 1.7015-4.46019 1.7015-6.16169 0s-1.7015-4.46018 0-6.16169c1.7015-1.7015 4.46018-1.7015 6.16169 0zm-879.47203-21.29478c4.43 1.88043 6.49684 6.99603 4.61641 11.42603-1.88042 4.43-6.99603 6.49684-11.42602 4.61642-4.43-1.88043-6.49684-6.99603-4.61642-11.42603s6.99603-6.49684 11.42603-4.61642zm509.38578 4.09715c1.80282 4.46214-.35298 9.5409-4.81512 11.34372s-9.5409-.35298-11.34372-4.81512c-1.80282-4.46215.35298-9.5409 4.81512-11.34372 4.46214-1.80283 9.5409.35298 11.34372 4.81512zm-259.95747-17.85264c5.52285 0 10 4.47715 10 10s-4.47715 10-10 10-10-4.47715-10-10 4.47715-10 10-10zm-395.99472 3.81937c3.49107 2.35476 4.41224 7.09375 2.05748 10.58483s-7.09376 4.41225-10.58483 2.05749c-3.49108-2.35477-4.41225-7.09376-2.05749-10.58484 2.35477-3.49108 7.09376-4.41224 10.58484-2.05748zm801.58942 1.77204c2.35476 3.49108 1.43359 8.23007-2.05748 10.58484-3.49108 2.35476-8.23007 1.43359-10.58484-2.05749-2.35476-3.49108-1.43359-8.23007 2.05749-10.58483 3.49107-2.35476 8.23007-1.4336 10.58483 2.05748zm-520.63933-16.88807c5.31468 1.03306 8.7856 6.17892 7.75254 11.4936-1.03307 5.31467-6.17893 8.7856-11.4936 7.75253-5.31468-1.03307-8.7856-6.17893-7.75254-11.4936 1.03307-5.31468 6.17893-8.7856 11.4936-7.75253zm241.06265 7.67484c1.03307 5.31467-2.43786 10.46053-7.75253 11.4936s-10.46053-2.43786-11.4936-7.75253 2.43786-10.46053 7.75253-11.4936 10.46053 2.43786 11.4936 7.75253zm466.62055.99704c2.12688 2.12688 2.12688 5.57523 0 7.7021-2.12688 2.12688-5.57523 2.12688-7.7021 0-2.12688-2.12687-2.12688-5.57522 0-7.7021 2.12687-2.12688 5.57522-2.12688 7.7021 0zm-1178.45317-.35506c2.12688 2.12687 2.12688 5.57522 0 7.7021s-5.57523 2.12688-7.7021 0c-2.12688-2.12688-2.12688-5.57523 0-7.7021 2.12687-2.12688 5.57522-2.12688 7.7021 0zm822.8905-36.51942c2.02818 5.01991-.3971 10.73351-5.41701 12.76168-5.01991 2.02818-10.73351-.3971-12.76169-5.41701-2.02817-5.01991.39711-10.73351 5.41702-12.76169 5.01991-2.02817 10.73351.39711 12.76168 5.41702zm-462.44214-5.44023c4.98375 2.11548 7.30894 7.87053 5.19347 12.85428-2.11548 4.98375-7.87054 7.30894-12.85428 5.19347-4.98375-2.11548-7.30895-7.87054-5.19347-12.85428 2.11548-4.98375 7.87053-7.30894 12.85428-5.19347zm598.7003.66694c2.69116 3.9898 1.6384 9.40579-2.35141 12.09695-3.9898 2.69116-9.40579 1.6384-12.09695-2.35141-2.69116-3.9898-1.63839-9.40579 2.35141-12.09695 3.98981-2.69116 9.4058-1.6384 12.09695 2.35141zm-736.03927-2.86751c3.98981 2.69115 5.04257 8.10714 2.35141 12.09695-2.69116 3.9898-8.10715 5.04256-12.09695 2.35141-3.98981-2.69116-5.04257-8.10715-2.35141-12.09696 2.69116-3.9898 8.10715-5.04256 12.09695-2.3514zm916.43256 3.56429c2.55225 2.55225 2.55225 6.69027 0 9.24252-2.55225 2.55226-6.69027 2.55226-9.24252 0-2.55226-2.55225-2.55226-6.69027 0-9.24252 2.55225-2.55225 6.69027-2.55225 9.24252 0zm-1099.53627-.00544c2.55226 2.55226 2.55226 6.69028 0 9.24253-2.55225 2.55225-6.69027 2.55225-9.24252 0s-2.55225-6.69027 0-9.24253c2.55225-2.55225 6.69027-2.55225 9.24252 0zm545.07159-22.15915c6.07513 0 11 4.92487 11 11s-4.92487 11-11 11-11-4.92487-11-11 4.92487-11 11-11zm114.97951-1.4831c1.14785 5.90519-2.70874 11.62282-8.61393 12.77067s-11.62281-2.70873-12.77067-8.61392c-1.14785-5.9052 2.70874-11.62282 8.61393-12.77067s11.62281 2.70873 12.77067 8.61392zm-216.83012-8.88447c5.90519 1.14785 9.76178 6.86548 8.61392 12.77067-1.14785 5.90519-6.86547 9.76177-12.77066 8.61392-5.9052-1.14785-9.76178-6.86547-8.61393-12.77067 1.14785-5.90519 6.86548-9.76177 12.77067-8.61392zm616.41638-8.57527c2.97763 2.97763 2.97763 7.80532 0 10.78295s-7.80531 2.97763-10.78294 0-2.97763-7.80532 0-10.78295c2.97763-2.97762 7.80531-2.97762 10.78294 0zm-1017.49986-.17419c2.97763 2.97763 2.97763 7.80532 0 10.78295s-7.80532 2.97763-10.78295 0c-2.97762-2.97763-2.97762-7.80532 0-10.78295 2.97763-2.97763 7.80532-2.97763 10.78295 0zm843.08234-11.56737c3.02755 4.48853 1.84319 10.58152-2.64534 13.60907s-10.58152 1.8432-13.60907-2.64533-1.84319-10.58152 2.64534-13.60907c4.48853-3.02756 10.58152-1.8432 13.60907 2.64533zm-666.53837-3.33725c4.48853 3.02756 5.67289 9.12054 2.64534 13.60907-3.02755 4.48854-9.12054 5.67289-13.60907 2.64534s-5.67289-9.12054-2.64534-13.60907c3.02756-4.48853 9.12054-5.67289 13.60907-2.64534zm540.64696.77904c2.25353 5.57767-.44123 11.92612-6.0189 14.17965-5.57768 2.25352-11.92612-.44123-14.17965-6.01891-2.25353-5.57767.44123-11.92612 6.0189-14.17965 5.57768-2.25352 11.92612.44123 14.17965 6.01891zm-413.52312-6.47045c5.5375 2.35053 8.12105 8.74504 5.77052 14.28254s-8.74504 8.12105-14.28254 5.77052c-5.53749-2.35053-8.12104-8.74504-5.77051-14.28254 2.35052-5.53749 8.74503-8.12104 14.28253-5.77052zm939.38235 6.23476c1.9949 1.34558 2.52128 4.05357 1.1757 6.04848-1.34558 1.9949-4.05357 2.52128-6.04847 1.1757-1.99491-1.34558-2.52129-4.05357-1.17571-6.04848 1.34558-1.9949 4.05358-2.52128 6.04848-1.1757zm-1473.56037.83986c1.34558 1.99491.8192 4.7029-1.1757 6.04848s-4.7029.8192-6.04848-1.17571c-1.34558-1.9949-.81919-4.70289 1.17571-6.04847s4.7029-.8192 6.04847 1.1757zm734.00753-34.92087c6.62741 0 12 5.37259 12 12 0 6.62742-5.37259 12-12 12-6.62742 0-12-5.37258-12-12 0-6.62741 5.37258-12 12-12zm472.44113 5.2208c3.403 3.40301 3.403 8.92037 0 12.32337-3.40301 3.403-8.92037 3.403-12.32337 0s-3.403-8.92036 0-12.32337c3.403-3.403 8.92036-3.403 12.32337 0zm-933.48808-.03008c3.403 3.40301 3.403 8.92037 0 12.32337-3.40301 3.40301-8.92037 3.40301-12.32337 0-3.40301-3.403-3.40301-8.92036 0-12.32337 3.403-3.403 8.92036-3.403 12.32337 0zm372.23392-13.6415c6.49571 1.26264 10.73795 7.55202 9.47531 14.04774-1.26263 6.49571-7.55202 10.73795-14.04773 9.47531s-10.73796-7.55202-9.47532-14.04773 7.55203-10.73796 14.04774-9.47532zm191.76633 8.94998c1.26264 6.49571-2.9796 12.7851-9.47532 14.04773-6.49571 1.26264-12.78509-2.9796-14.04773-9.47531s2.97961-12.7851 9.47532-14.04774 12.78509 2.97961 14.04773 9.47532zm592.7819 2.80869c2.49363 1.68197 3.15161 5.06696 1.46963 7.56059-1.68197 2.49363-5.06696 3.15161-7.56059 1.46963-2.49363-1.68197-3.1516-5.06696-1.46963-7.56059s5.06697-3.15161 7.56059-1.46963zm-1384.08334 1.1776c1.68198 2.49362 1.024 5.87862-1.46963 7.56059-2.49362 1.68197-5.87862 1.024-7.56059-1.46963-1.68198-2.49363-1.024-5.87862 1.46963-7.56059 2.49363-1.68198 5.87862-1.024 7.56059 1.46963zm397.12899-24.55746c4.98726 3.36395 6.30321 10.13394 2.93926 15.12119-3.36394 4.98726-10.13393 6.30321-15.12119 2.93927-4.98725-3.36395-6.30321-10.13394-2.93926-15.12119 3.36395-4.98726 10.13394-6.30321 15.12119-2.93927zm596.20621 2.66286c3.36394 4.98726 2.04799 11.75725-2.93927 15.12119-4.98725 3.36395-11.75724 2.048-15.12119-2.93926-3.36394-4.98725-2.04799-11.75724 2.93927-15.12119 4.98725-3.36395 11.75724-2.04799 15.12119 2.93926zm-479.14107-17.23394c6.09125 2.58558 8.93315 9.61954 6.34757 15.71079s-9.61954 8.93315-15.71079 6.34757-8.93315-9.61954-6.34757-15.71079c2.58558-6.09124 9.61954-8.93315 15.71079-6.34757zm363.77285 6.35654c2.47888 6.13544-.48535 13.11873-6.6208 15.59761-6.13544 2.47888-13.11873-.48535-15.59761-6.62079-2.47888-6.13545.48535-13.11874 6.62079-15.59762 6.13545-2.47888 13.11874.48535 15.59762 6.6208zm-831.16346 1.50536c2.01836 2.99235 1.22879 7.05434-1.76356 9.07271s-7.05435 1.2288-9.07271-1.76356c-2.01837-2.99235-1.2288-7.05434 1.76355-9.07271 2.99236-2.01837 7.05435-1.2288 9.07272 1.76356zm1291.64325-1.98464c2.99235 2.01836 3.78192 6.08036 1.76355 9.07271-2.01836 2.99235-6.08036 3.78193-9.07271 1.76356s-3.78193-6.08036-1.76356-9.07272c2.01837-2.99235 6.08036-3.78192 9.07272-1.76355zm-1066.56341-9.96986c3.82838 3.82838 3.82838 10.03541 0 13.86379-3.82838 3.82837-10.03541 3.82837-13.86379 0-3.82838-3.82838-3.82838-10.03541 0-13.86379s10.03541-3.82838 13.86379 0zm846.51324-.58334c3.82838 3.82838 3.82838 10.03541 0 13.86379s-10.03541 3.82838-13.86379 0-3.82838-10.03541 0-13.86379 10.03541-3.82838 13.86379 0zm-430.16006-30.37212c7.17971 0 13 5.8203 13 13s-5.82029 13-13 13c-7.1797 0-13-5.8203-13-13s5.8203-13 13-13zm602.59827 8.53877c3.49108 2.35476 4.41225 7.09375 2.05749 10.58483-2.35477 3.49108-7.09376 4.41225-10.58484 2.05748-3.49108-2.35476-4.41224-7.09375-2.05748-10.58483s7.09375-4.41225 10.58483-2.05748zm-1194.93953 1.44204c2.35476 3.49108 1.43359 8.23007-2.05749 10.58483s-8.23007 1.4336-10.58483-2.05748-1.4336-8.23007 2.05748-10.58484c3.49108-2.35476 8.23007-1.43359 10.58484 2.05749zm683.11193-6.51164c1.37743 7.08623-3.25048 13.94738-10.33671 15.3248-7.08623 1.37743-13.94737-3.25047-15.3248-10.3367-1.37742-7.08624 3.25048-13.94738 10.33671-15.32481 7.08623-1.37742 13.94738 3.25048 15.3248 10.33671zm-166.38968-10.99086c7.08623 1.37743 11.71413 8.23857 10.33671 15.3248-1.37743 7.08623-8.23857 11.71414-15.3248 10.33671-7.08623-1.37742-11.71414-8.23857-10.33671-15.3248 1.37742-7.08623 8.23857-11.71413 15.3248-10.33671zm345.28845 4.37555c3.70034 5.48598 2.25279 12.93297-3.23319 16.63331s-12.93297 2.25279-16.63331-3.23319-2.25279-12.93297 3.23319-16.63331 12.93297-2.25279 16.63331 3.23319zm-522.59811-3.49454c5.48598 3.70034 6.93353 11.14733 3.23319 16.63331-3.70035 5.48598-11.14733 6.93353-16.63331 3.23318-5.48598-3.70034-6.93353-11.14732-3.23319-16.6333 3.70034-5.48599 11.14733-6.93353 16.63331-3.23319zm637.88943-8.98398c4.25375 4.25375 4.25375 11.15045 0 15.40421-4.25376 4.25375-11.15046 4.25375-15.40421 0-4.25376-4.25376-4.25376-11.15046 0-15.40421 4.25375-4.25376 11.15045-4.25376 15.40421 0zm-755.27477-.15289c4.25375 4.25375 4.25375 11.15045 0 15.40421-4.25376 4.25375-11.15045 4.25375-15.40421 0-4.25375-4.25376-4.25375-11.15046 0-15.40421 4.25376-4.25376 11.15045-4.25376 15.40421 0zm223.24765-13.48263c6.645 2.82063 9.74526 10.49404 6.92463 17.13904-2.82064 6.64499-10.49405 9.74525-17.13904 6.92462-6.645-2.82063-9.74526-10.49404-6.92463-17.13904 2.82064-6.645 10.49405-9.74526 17.13904-6.92462zm311.89077 6.91744c2.70423 6.69321-.52947 14.31135-7.22269 17.01558-6.69321 2.70423-14.31134-.52947-17.01557-7.22268-2.70424-6.69322.52947-14.31135 7.22268-17.01558 6.69321-2.70424 14.31135.52947 17.01558 7.22268zm-706.92979-1.43685c2.69115 3.9898 1.63839 9.40579-2.35141 12.09695-3.98981 2.69115-9.4058 1.63839-12.09696-2.35141-2.69115-3.98981-1.63839-9.4058 2.35141-12.09695 3.98981-2.69116 9.4058-1.6384 12.09696 2.35141zm1095.42919-2.35644c3.98981 2.69116 5.04257 8.10715 2.35141 12.09695-2.69116 3.98981-8.10715 5.04257-12.09695 2.35141-3.98981-2.69115-5.04257-8.10714-2.35141-12.09695 2.69116-3.9898 8.10715-5.04256 12.09695-2.35141zm-320.7461-34.7265c4.03674 5.98471 2.4576 14.1087-3.52711 18.14543-5.98471 4.03674-14.10869 2.4576-18.14543-3.52711-4.03673-5.98471-2.45759-14.10869 3.52712-18.14543 5.9847-4.03674 14.10869-2.45759 18.14542 3.52711zm-447.01464-4.01336c5.98471 4.03674 7.56385 12.16073 3.52712 18.14543-4.03674 5.98471-12.16072 7.56385-18.14543 3.52712-5.98471-4.03674-7.56385-12.16072-3.52711-18.14543 4.03673-5.98471 12.16072-7.56385 18.14542-3.52712zm-601.299718 17.36039c.901411 2.23107-.176491 4.77045-2.407562 5.67186s-4.770449-.17649-5.67186-2.40756c-.901411-2.23108.176491-4.77045 2.407562-5.67186 2.231071-.90142 4.770449.17649 5.67186 2.40756zm1636.197908-2.7568c2.21499.94021 3.24841 3.49801 2.3082 5.71301s-3.49801 3.24842-5.71301 2.30821-3.24842-3.49802-2.30821-5.71302 3.49802-3.24842 5.71302-2.3082zm-1142.60429-12.91308c4.67913 4.67913 4.67913 12.2655 0 16.94463s-12.2655 4.67913-16.94463 0-4.67913-12.2655 0-16.94463 12.2655-4.67913 16.94463 0zm824.217 2.06169c4.48853 3.02755 5.67289 9.12054 2.64534 13.60907s-9.12054 5.67289-13.60907 2.64534c-4.48853-3.02756-5.67289-9.12055-2.64534-13.60908s9.12054-5.67288 13.60907-2.64533zm-162.98733-2.62957c4.67913 4.67913 4.67913 12.2655 0 16.94463s-12.2655 4.67913-16.94463 0-4.67913-12.2655 0-16.94463 12.2655-4.67913 16.94463 0zm-338.88536-7.91323c7.73199 0 14 6.26801 14 14s-6.26801 14-14 14-14-6.26801-14-14 6.26801-14 14-14zm-489.78254 12.46399c3.02756 4.48853 1.8432 10.58151-2.64533 13.60907-4.48853 3.02755-10.58152 1.84319-13.60907-2.64534-3.02756-4.48853-1.8432-10.58152 2.64533-13.60907s10.58152-1.8432 13.60907 2.64534zm567.53932-7.16896c1.49221 7.67675-3.52135 15.10966-11.1981 16.60187-7.67675 1.4922-15.10966-3.52136-16.60187-11.19811s3.52135-15.10966 11.1981-16.60186c7.67675-1.49221 15.10966 3.52135 16.60187 11.1981zm-139.19409-11.73119c7.67675 1.49221 12.69031 8.92512 11.1981 16.60187s-8.92512 12.69031-16.60187 11.1981-12.69031-8.92512-11.1981-16.60187 8.92512-12.69031 16.60187-11.1981zm833.06307 6.21973c2.76875 1.17526 4.06053 4.37252 2.88526 7.14126-1.17526 2.76875-4.37252 4.06053-7.14126 2.88526-2.76875-1.17526-4.06053-4.37251-2.88526-7.14126 1.17526-2.76875 4.37251-4.06053 7.14126-2.88526zm-1537.15999 2.92193c1.12676 2.78883-.22062 5.96306-3.00946 7.08982-2.788835 1.12676-5.963057-.22061-7.089821-3.00945s.220614-5.96306 3.009452-7.08983c2.788839-1.12676 5.963059.22062 7.089829 3.00946zm903.43239-18.42964c2.92958 7.25098-.5736 15.50396-7.82458 18.43354-7.25098 2.92959-15.50395-.57359-18.43354-7.82457s.5736-15.50396 7.82458-18.43354c7.25097-2.92959 15.50395.57359 18.43354 7.82457zm-257.87687-8.15317c7.19875 3.05568 10.55736 11.36854 7.50167 18.56729-3.05568 7.19875-11.36854 10.55736-18.56729 7.50167-7.19875-3.05568-10.55736-11.36854-7.50167-18.56729 3.05568-7.19875 11.36854-10.55736 18.56729-7.50167zm-315.14789.24357c3.36395 4.98725 2.048 11.75724-2.93926 15.12119-4.98726 3.36394-11.75724 2.04799-15.12119-2.93927-3.36395-4.98725-2.048-11.75724 2.93926-15.12119 4.98726-3.36394 11.75724-2.04799 15.12119 2.93927zm885.07463-2.94294c4.98726 3.36395 6.30321 10.13394 2.93927 15.12119-3.36395 4.98726-10.13394 6.30321-15.12119 2.93927-4.98726-3.36395-6.30321-10.13394-2.93927-15.12119 3.36395-4.98726 10.13394-6.30321 15.12119-2.93927zm-1163.10319 8.14955c1.35211 3.34661-.26474 7.15567-3.61135 8.50779-3.3466 1.35212-7.15567-.26474-8.50779-3.61134-1.35211-3.34661.26474-7.15567 3.61135-8.50779 3.3466-1.35212 7.15567.26474 8.50779 3.61134zm1434.17133-3.71279c3.3225 1.41032 4.87263 5.24702 3.46231 8.56952-1.41031 3.3225-5.24702 4.87263-8.56952 3.46231-3.32249-1.41032-4.87262-5.24702-3.46231-8.56952 1.41032-3.3225 5.24703-4.87263 8.56952-3.46231zm-993.88895-18.60574c5.10451 5.10451 5.10451 13.38055 0 18.48505-5.1045 5.10451-13.38054 5.10451-18.48505 0-5.1045-5.1045-5.1045-13.38054 0-18.48505 5.10451-5.1045 13.38055-5.1045 18.48505 0zm564.06508-.77026c5.1045 5.1045 5.1045 13.38054 0 18.48505-5.10451 5.1045-13.38055 5.1045-18.48505 0-5.10451-5.10451-5.10451-13.38055 0-18.48505 5.1045-5.10451 13.38054-5.10451 18.48505 0zm-97.5701-7.68475c4.37313 6.48343 2.66239 15.28442-3.82104 19.65755s-15.28442 2.66239-19.65755-3.82104c-4.37313-6.48344-2.66239-15.28442 3.82104-19.65755 6.48344-4.37313 15.28442-2.66239 19.65755 3.82104zm-368.4681-4.06287c6.48343 4.37313 8.19417 13.17411 3.82104 19.65755-4.37313 6.48343-13.17412 8.19417-19.65755 3.82104s-8.19417-13.17412-3.82104-19.65755 13.17411-8.19417 19.65755-3.82104zm-483.64195 12.04128c1.57747 3.90437-.30886 8.34829-4.21323 9.92576-3.90437 1.57746-8.34829-.30886-9.92576-4.21324-1.57746-3.90437.30886-8.34828 4.21324-9.92575 3.90437-1.57747 8.34828.30886 9.92575 4.21323zm1326.0878-4.29814c3.87625 1.64537 5.68474 6.12153 4.03937 9.99778-1.64537 3.87624-6.12153 5.68473-9.99778 4.03936-3.87624-1.64537-5.68473-6.12153-4.03936-9.99778 1.64537-3.87624 6.12153-5.68473 9.99777-4.03936zm-1046.92649-15.04233c3.70034 5.48598 2.2528 12.93297-3.23319 16.63331-5.48598 3.70034-12.93296 2.2528-16.63331-3.23319-3.70034-5.48598-2.25279-12.93296 3.23319-16.6333 5.48598-3.70035 12.93297-2.2528 16.63331 3.23318zm774.38685-3.60272c5.48598 3.70034 6.93353 11.14732 3.23319 16.63331-3.70034 5.48598-11.14733 6.93352-16.63331 3.23318s-6.93353-11.14732-3.23319-16.63331c3.70034-5.48598 11.14733-6.93353 16.63331-3.23318zm-395.53385-9.63285c8.28427 0 15 6.71572 15 15 0 8.28427-6.71573 15-15 15-8.28428 0-15-6.71573-15-15 0-8.28428 6.71572-15 15-15zm64.74289 7.12088c1.60699 8.26727-3.79223 16.27194-12.0595 17.87894-8.26727 1.60699-16.27194-3.79223-17.87893-12.0595-1.607-8.26727 3.79222-16.27194 12.05949-17.87893 8.26727-1.607 16.27194 3.79222 17.87894 12.05949zm-111.01081-12.31508c8.26727 1.607 13.66649 9.61167 12.05949 17.87894-1.60699 8.26727-9.61166 13.66649-17.87893 12.05949-8.26727-1.60699-13.66649-9.61166-12.0595-17.87893 1.607-8.26727 9.61167-13.66649 17.87894-12.0595zm659.93751 9.93519c4.42999 1.88042 6.49683 6.99603 4.61641 11.42603-1.88042 4.42999-6.99603 6.49683-11.42603 4.61641-4.42999-1.88042-6.49683-6.99603-4.61641-11.42603 1.88042-4.42999 6.99603-6.49683 11.42603-4.61641zm-1214.88477 4.3651c1.80282 4.46214-.35298 9.5409-4.81512 11.34372-4.46215 1.80282-9.5409-.35298-11.34372-4.81512-1.80283-4.46214.35298-9.5409 4.81512-11.34372s9.5409.35298 11.34372 4.81512zm713.33121-19.04289c3.15494 7.80875-.61772 16.69657-8.42646 19.85151-7.80875 3.15494-16.69657-.61772-19.85151-8.42646-3.15494-7.80875.61772-16.69657 8.42646-19.85151 7.80875-3.15494 16.69657.61772 19.85151 8.42646zm-204.01941-8.40121c7.7525 3.29074 11.36947 12.24305 8.07873 19.99554-3.29074 7.7525-12.24305 11.36947-19.99555 8.07873s-11.36946-12.24305-8.07872-19.99555c3.29073-7.75249 12.24305-11.36946 19.99554-8.07872zm-129.72376.34494c5.52988 5.52988 5.52988 14.49559 0 20.02547s-14.49559 5.52988-20.02547 0-5.52988-14.49559 0-20.02547 14.49559-5.52988 20.02547 0zm463.78097-.45426c5.52989 5.52988 5.52989 14.49559 0 20.02547-5.52988 5.52988-14.49559 5.52988-20.02547 0s-5.52988-14.49559 0-20.02547 14.49559-5.52988 20.02547 0zm314.30522-1.80559c4.98375 2.11548 7.30894 7.87054 5.19346 12.85428-2.11547 4.98375-7.87053 7.30895-12.85428 5.19347-4.98374-2.11547-7.30894-7.87053-5.19346-12.85428 2.11547-4.98375 7.87053-7.30894 12.85428-5.19347zm-1099.73098 5.05781c2.02817 5.01991-.39711 10.73351-5.41701 12.76168-5.01991 2.02818-10.73351-.3971-12.76169-5.41701-2.02817-5.01991.39711-10.73351 5.41701-12.76169 5.01991-2.02817 10.73351.39711 12.76169 5.41702zm222.50724-10.16081c4.03673 5.98471 2.45759 14.10869-3.52712 18.14543-5.9847 4.03674-14.10869 2.45759-18.14542-3.52711-4.03674-5.98471-2.4576-14.1087 3.52711-18.14543 5.98471-4.03674 14.10869-2.4576 18.14543 3.52711zm659.59188-3.90057c5.9847 4.03674 7.56385 12.16072 3.52711 18.14543s-12.16072 7.56385-18.14543 3.52711c-5.9847-4.03673-7.56385-12.16072-3.52711-18.14543 4.03673-5.9847 12.16072-7.56385 18.14543-3.52711zm-472.26313-11.09415c6.98216 4.70953 8.82449 14.18751 4.11497 21.16967-4.70953 6.98216-14.18751 8.82449-21.16967 4.11496-6.98216-4.70952-8.82449-14.1875-4.11496-21.16966 4.70952-6.98216 14.1875-8.82449 21.16966-4.11497zm287.9462 3.79951c4.70952 6.98216 2.86719 16.46015-4.11497 21.16967-6.98216 4.70953-16.46014 2.86719-21.16967-4.11497-4.70952-6.98215-2.86719-16.46014 4.11497-21.16966 6.98216-4.70953 16.46014-2.86719 21.16967 4.11496zm342.76287-9.00856c5.5375 2.35053 8.12105 8.74504 5.77052 14.28253-2.35053 5.5375-8.74504 8.12105-14.28253 5.77052-5.5375-2.35053-8.12105-8.74503-5.77052-14.28253s8.74503-8.12105 14.28253-5.77052zm-980.47 5.38855c2.25353 5.57768-.44123 11.92612-6.0189 14.17965-5.57768 2.25353-11.92613-.44123-14.17965-6.0189-2.25353-5.57768.44122-11.92612 6.0189-14.17965s11.92612.44123 14.17965 6.0189zm222.80873-25.43878c4.37313 6.48344 2.66239 15.28442-3.82104 19.65755s-15.28442 2.66239-19.65755-3.82104-2.66239-15.28442 3.82104-19.65755c6.48344-4.37313 15.28442-2.66239 19.65755 3.82104zm540.68972-3.83646c6.48343 4.37313 8.19417 13.17411 3.82104 19.65754-4.37313 6.48344-13.17411 8.19418-19.65755 3.82105-6.48343-4.37314-8.19417-13.17412-3.82104-19.65755 4.37313-6.48344 13.17412-8.19417 19.65755-3.82104zm-89.47869-1.03122c5.95526 5.95526 5.95526 15.61064 0 21.56589-5.95526 5.95526-15.61064 5.95526-21.56589 0-5.95526-5.95525-5.95526-15.61063 0-21.56589 5.95525-5.95526 15.61063-5.95526 21.56589 0zm-360.37738-.38012c5.95526 5.95525 5.95526 15.61063 0 21.56589s-15.61064 5.95526-21.56589 0c-5.95526-5.95526-5.95526-15.61064 0-21.56589 5.95525-5.95526 15.61063-5.95526 21.56589 0zm171.9658-11.47597c9.63988 0 17.45455 7.83502 17.45455 17.5 0 9.66499-7.81467 17.5-17.45455 17.5h-1.09091c-9.63988 0-17.45454-7.83501-17.45454-17.5 0-9.66498 7.81466-17.5 17.45454-17.5zm433.85696 10.16667c6.09125 2.58558 8.93316 9.61954 6.34757 15.71079-2.58558 6.09124-9.61954 8.93315-15.71078 6.34757-6.09125-2.58559-8.93315-9.61954-6.34757-15.71079s9.61954-8.93315 15.71078-6.34757zm-856.27058 6.50147c2.47888 6.13545-.48535 13.11874-6.62079 15.59762-6.13545 2.47888-13.11874-.48535-15.59762-6.6208-2.47888-6.13544.48535-13.11873 6.6208-15.59761 6.13544-2.47888 13.11873.48535 15.59761 6.62079zm469.13156-23.88179c9.22224-2.82008 19.00264 2.31099 21.84511 11.46056 2.84248 9.14956-2.32935 18.85287-11.55159 21.67295l-1.04365.31914c-9.22225 2.82007-19.00264-2.31099-21.84512-11.46056-2.84247-9.14957 2.32935-18.85288 11.5516-21.67296zm-116.82508 11.13438c2.85143-9.14657 12.63691-14.26808 21.85647-11.43923l1.04335.32013c9.21956 2.82886 14.38196 12.53685 11.53052 21.68342-2.85143 9.14657-12.63691 14.26808-21.85647 11.43923l-1.04335-.32013c-9.21956-2.82886-14.38196-12.53685-11.53052-21.68342zm938.35639 7.46834c2.36207.45914 3.90471 2.74619 3.44557 5.10827-.45915 2.36208-2.7462 3.90471-5.10827 3.44557-2.36208-.45914-3.90471-2.74619-3.44557-5.10827s2.74619-3.90471 5.10827-3.44557zm-1735.888331 3.43164c.459141 2.36208-1.083493 4.64913-3.44557 5.10827-2.362076.45914-4.649126-1.08349-5.108267-3.44557s1.083493-4.64912 3.44557-5.10827c2.362077-.45914 4.649126 1.0835 5.108267 3.44557zm53.755157-10.69901c.573927 2.9526-1.354366 5.81141-4.306962 6.38534-2.952596.57392-5.811407-1.35437-6.385334-4.30696-.573926-2.9526 1.354366-5.81141 4.306963-6.38534 2.952596-.57392 5.811407 1.35437 6.385333 4.30696zm1629.580374-5.06755c2.95259.57393 4.88088 3.43274 4.30696 6.38534-.57393 2.95259-3.43274 4.88089-6.38534 4.30696-2.95259-.57393-4.88088-3.43274-4.30696-6.38533.57393-2.9526 3.43274-4.88089 6.38534-4.30697zm-444.81972-15.80768c6.645 2.82063 9.74526 10.49404 6.92462 17.13904-2.82063 6.645-10.49404 9.74525-17.13904 6.92462-6.64499-2.82063-9.74525-10.49404-6.92462-17.13904s10.49404-9.74526 17.13904-6.92462zm-728.95167 7.09601c2.70424 6.69321-.52947 14.31135-7.22268 17.01558s-14.31135-.52947-17.01558-7.22268c-2.70423-6.69322.52947-14.31135 7.22268-17.01558 6.69322-2.70424 14.31135.52947 17.01558 7.22268zm244.20378-13.44317c5.47244-8.0611 16.39169-10.12414 24.38882-4.60792l.90501.62425c7.99713 5.51622 10.0438 16.52282 4.57136 24.58393s-16.39169 10.12415-24.38882 4.60792l-.90501-.62425c-7.99713-5.51622-10.0438-16.52282-4.57136-24.58393zm201.94719-4.97011c8.00063-5.35793 18.9184-3.34514 24.38552 4.49569 5.46713 7.84084 3.41332 18.54055-4.58731 23.89848l-.90541.60634c-8.00063 5.35793-18.9184 3.34514-24.38552-4.4957-5.46713-7.84083-3.41331-18.54055 4.58732-23.89848zm673.92349 15.62129c3.54312.68871 5.85707 4.11928 5.16836 7.6624s-4.11929 5.85707-7.6624 5.16835c-3.54312-.68871-5.85707-4.11928-5.16836-7.6624.68872-3.54311 4.11929-5.85706 7.6624-5.16835zm-1520.98416 5.04095c.68871 3.54311-1.62524 6.97369-5.16836 7.6624-3.54311.68871-6.97369-1.62524-7.6624-5.16835-.68871-3.54312 1.62524-6.97369 5.16836-7.66241 3.54311-.68871 6.97368 1.62524 7.6624 5.16836zm977.51805-21.03815c6.98216 4.70953 8.82449 14.18751 4.11496 21.16967-4.70952 6.98216-14.1875 8.82449-21.16966 4.11496-6.98216-4.70952-8.82449-14.1875-4.11497-21.16966 4.70953-6.98216 14.18751-8.82449 21.16967-4.11497zm-419.81231 4.08521c4.70952 6.98216 2.86734 16.46004-4.11482 21.16957-6.98216 4.70952-16.46014 2.86719-21.16967-4.11497-4.70952-6.98216-2.86719-16.46014 4.11497-21.16967 6.98216-4.70952 16.45999-2.86709 21.16952 4.11507zm906.61844-.06098c4.13363.8035 6.83324 4.80583 6.02974 8.93947-.80349 4.13363-4.80583 6.83324-8.93946 6.02975-4.13364-.8035-6.83325-4.80584-6.02975-8.93947.8035-4.13364 4.80583-6.83325 8.93947-6.02975zm-1406.46184 5.95296c.8035 4.13363-1.89611 8.13597-6.02975 8.93947-4.13363.80349-8.13597-1.89612-8.93946-6.02975-.8035-4.13364 1.89611-8.13597 6.02974-8.93947 4.13364-.8035 8.13597 1.89611 8.93947 6.02975zm1007.19985-26.50477c7.19875 3.05569 10.55736 11.36855 7.50168 18.5673-3.05569 7.19874-11.36855 10.55736-18.5673 7.50167-7.19874-3.05569-10.55736-11.36855-7.50167-18.5673 3.05569-7.19874 11.36855-10.55736 18.56729-7.50167zm-598.51325 7.17217c2.92959 7.25098-.57359 15.50396-7.82457 18.43354-7.25098 2.92959-15.50396-.57359-18.43354-7.82457-2.92959-7.25098.57359-15.50396 7.82457-18.43355 7.25098-2.92958 15.50396.5736 18.43354 7.82458zm-348.69244 7.59682c.91828 4.72415-2.16699 9.29825-6.89114 10.21653s-9.29825-2.16698-10.21654-6.89114c-.91828-4.72415 2.16699-9.29825 6.89114-10.21653 4.72416-.91828 9.29826 2.16698 10.21654 6.89114zm1287.98875-7.4907c4.72415.91828 7.80942 5.49238 6.89114 10.21653-.91829 4.72415-5.49238 7.80942-10.21654 6.89114-4.72415-.91828-7.80942-5.49238-6.89114-10.21653.91829-4.72416 5.49238-7.80943 10.21654-6.89114zm-796.06091-24.83617c7.62634-6.0466 18.73433-4.79594 24.8104 2.79341l.6876.85886c6.07607 7.58936 4.81932 18.64348-2.80702 24.69007-7.62634 6.0466-18.73433 4.79595-24.8104-2.79341l-.6876-.85886c-6.07607-7.58935-4.81932-18.64347 2.80702-24.69007zm272.28396 2.70144c6.08444-7.58274 17.19355-8.82104 24.81287-2.76581 7.61933 6.05524 8.86359 17.111 2.77915 24.69374l-.68856.85811c-6.08444 7.58274-17.19355 8.82103-24.81287 2.7658-7.61933-6.05523-8.8636-17.11099-2.77915-24.69373zm463.16621 9.53602c5.31467 1.03307 8.7856 6.17893 7.75253 11.4936s-6.17893 8.7856-11.4936 7.75253c-5.31467-1.03306-8.7856-6.17892-7.75253-11.4936 1.03306-5.31467 6.17892-8.7856 11.4936-7.75253zm-1165.25204 7.67881c1.03306 5.31467-2.43786 10.46053-7.75254 11.4936-5.31467 1.03307-10.46053-2.43786-11.4936-7.75253-1.03307-5.31468 2.43786-10.46054 7.75253-11.4936 5.31468-1.03307 10.46054 2.43786 11.49361 7.75253zm578.05211-34.4875c9.63988 0 17.45454 7.83501 17.45454 17.5 0 9.66498-7.81466 17.5-17.45454 17.5h-1.09091c-9.63988 0-17.45455-7.83502-17.45455-17.5 0-9.66499 7.81467-17.5 17.45455-17.5zm-513.79434 21.40208c1.14786 5.90519-2.70873 11.62281-8.61392 12.77067-5.90519 1.14785-11.62281-2.70874-12.77067-8.61393-1.14785-5.90519 2.70873-11.62281 8.61393-12.77067 5.90519-1.14785 11.62281 2.70874 12.77066 8.61393zm1037.5769-8.64909c5.90519 1.14786 9.76177 6.86548 8.61392 12.77067s-6.86548 9.76178-12.77067 8.61393c-5.90519-1.14786-9.76177-6.86548-8.61392-12.77067s6.86547-9.76178 12.77067-8.61393zm-746.66589-1.12701c3.15494 7.80874-.61772 16.69657-8.42647 19.8515-7.80874 3.15494-16.69657-.61771-19.8515-8.42646-3.15494-7.80875.61771-16.69657 8.42646-19.85151s16.69657.61772 19.85151 8.42647zm463.29283-9.01818c7.75249 3.29074 11.36946 12.24305 8.07872 19.99554-3.29074 7.7525-12.24305 11.36947-19.99555 8.07873-7.75249-3.29074-11.36946-12.24305-8.07872-19.99555 3.29074-7.75249 12.24305-11.36946 19.99555-8.07872zm-302.81236-4.55095c4.41539-8.47595 14.96918-11.82069 23.57253-7.47067l.97361.49227c8.60335 4.35002 11.99836 14.74752 7.58296 23.22348-4.4154 8.47595-14.96918 11.82069-23.57253 7.47067l-.97361-.49227c-8.60335-4.35002-11.99836-14.74752-7.58296-23.22348zm-385.15832 10.57268c1.26264 6.49571-2.97961 12.78509-9.47532 14.04773s-12.78509-2.9796-14.04773-9.47531 2.9796-12.7851 9.47531-14.04774c6.49572-1.26264 12.7851 2.97961 14.04774 9.47532zm906.93868-10.08867c6.49571 1.26264 10.73795 7.55202 9.47531 14.04774-1.26263 6.49571-7.55202 10.73795-14.04773 9.47531s-10.73796-7.55202-9.47532-14.04773 7.55203-10.73796 14.04774-9.47532zm-418.423-10.58504c8.35698-4.79864 19.08916-2.02946 23.97098 6.18513 4.88182 8.21458 2.06464 18.76388-6.29234 23.56252l-.94573.54304c-8.35699 4.79864-19.08916 2.02947-23.97099-6.18512-4.88182-8.21459-2.06464-18.76389 6.29235-23.56253zm350.89844-3.10871c7.08623 1.37743 11.71413 8.23857 10.33671 15.32481-1.37743 7.08623-8.23857 11.71413-15.3248 10.3367-7.08623-1.37742-11.71414-8.23857-10.33671-15.3248 1.37742-7.08623 8.23857-11.71413 15.3248-10.33671zm-771.04915 10.33505c1.37742 7.08623-3.25048 13.94738-10.33671 15.3248s-13.94738-3.25048-15.3248-10.33671c-1.37743-7.08623 3.25047-13.94738 10.3367-15.3248s13.94738 3.25048 15.32481 10.33671zm208.95702-27.94325c8.89577-3.52155 18.93126.91358 22.4149 9.90616l.39423 1.01765c3.48365 8.99257-.90375 19.13727-9.79952 22.65883-8.89577 3.52155-18.93126-.91359-22.41491-9.90617l-.39423-1.01765c-3.48364-8.99257.90376-19.13727 9.79953-22.65882zm316.76981 8.9075c3.48956-8.99027 13.52781-13.41862 22.42106-9.891 8.89326 3.52762 13.27382 13.67538 9.78427 22.66565l-.3949 1.0174c-3.48956 8.99027-13.52781 13.41862-22.42106 9.891-8.89326-3.52762-13.27382-13.67538-9.78427-22.66565zm-455.23006 4.91356c1.49221 7.67675-3.52135 15.10966-11.1981 16.60187s-15.10966-3.52135-16.60187-11.1981 3.52136-15.10966 11.19811-16.60187c7.67674-1.49221 15.10965 3.52135 16.60186 11.1981zm631.20888-11.20716c7.67675 1.49221 12.69031 8.92512 11.1981 16.60187s-8.92512 12.69031-16.60187 11.1981-12.69031-8.92512-11.1981-16.60187 8.92512-12.69031 16.60187-11.1981zm-417.01389-12.83415c7.99776-5.23149 18.64257-2.86496 23.77585 5.28581l.58092.9224c5.13328 8.15077 2.81117 18.99924-5.18658 24.23074s-18.64256 2.86496-23.77585-5.28581l-.58091-.92239c-5.13329-8.15077-2.81118-18.99925 5.18657-24.23075zm345.69501-2.47302c8.26727 1.60699 13.66649 9.61166 12.05949 17.87893-1.60699 8.26727-9.61166 13.66649-17.87893 12.0595-8.26727-1.607-13.66649-9.61167-12.0595-17.87894 1.607-8.26727 9.61167-13.66649 17.87894-12.05949zm-180.87976 3.08047c4.69658-8.41595 15.21366-11.36714 23.49056-6.59165 8.2769 4.77548 11.17932 15.46926 6.48274 23.88521l-.53149.9524c-4.69658 8.41596-15.21366 11.36715-23.49056 6.59166-8.2769-4.77548-11.17933-15.46926-6.48275-23.88521zm-306.38165 8.63685c1.607 8.26727-3.79222 16.27194-12.05949 17.87894-8.26727 1.60699-16.27194-3.79223-17.87894-12.0595-1.60699-8.26727 3.79223-16.27194 12.0595-17.87893 8.26727-1.607 16.27194 3.79222 17.87893 12.05949zm59.93348-51.60504c9.61706-.70149 17.98204 6.52408 18.68371 16.13876l.0794 1.08806c.70167 9.61468-6.52569 17.97759-16.14276 18.67908s-17.98205-6.52408-18.68371-16.13876l-.07941-1.08806c-.70166-9.61468 6.5257-17.97759 16.14277-18.67908zm333.29604 15.76371c.71398-9.61379 9.08789-16.82863 18.70365-16.11479s16.83207 9.08603 16.11809 18.69982l-.0808 1.08795c-.71398 9.61379-9.08789 16.82863-18.70365 16.11479-9.61576-.71383-16.83207-9.08603-16.11809-18.69981zm-258.32613-25.28469c9.64428-.39614 17.78407 7.09086 18.18072 16.7227l.04489 1.08999c.39666 9.63184-7.10002 17.76112-16.7443 18.15727-9.64428.39614-17.78407-7.09087-18.18073-16.7227l-.04488-1.09c-.39666-9.63183 7.10002-17.76112 16.7443-18.15726zm-155.28529-.76865c8.422 0 15.24938 6.82739 15.24938 15.24939 0 8.42201-6.82738 15.24939-15.24938 15.24939-8.42201 0-15.24939-6.82738-15.24939-15.24939 0-8.422 6.82738-15.24939 15.24939-15.24939zm510.30968-.17209c8.422 0 15.24939 6.82738 15.24939 15.24939 0 8.422-6.82739 15.24938-15.24939 15.24938-8.42201 0-15.24939-6.82738-15.24939-15.24938 0-8.42201 6.82738-15.24939 15.24939-15.24939zm-155.98469-6.10477c9.65997-.13116 17.59747 7.57647 17.72891 17.21547l.01487 1.09081c.13144 9.63899-7.59295 17.55927-17.25291 17.69042-9.65997.13116-17.59747-7.57647-17.72891-17.21547l-.01487-1.09081c-.13144-9.63899 7.59295-17.55927 17.25291-17.69042zm-427.52045 7.67337c7.82044 0 14.16015 6.33971 14.16015 14.16015 0 7.82043-6.33971 14.16014-14.16015 14.16014-7.82043 0-14.16014-6.33971-14.16014-14.16014 0-7.82044 6.33971-14.16015 14.16014-14.16015zm656.1348-.36236c7.82043 0 14.16015 6.33971 14.16015 14.16014 0 7.82044-6.33972 14.16015-14.16015 14.16015s-14.16015-6.33971-14.16015-14.16015c0-7.82043 6.33972-14.16014 14.16015-14.16014zm-726.21075 1.24048c7.21886 0 13.07091 5.85205 13.07091 13.07091s-5.85205 13.0709-13.07091 13.0709-13.0709-5.85204-13.0709-13.0709 5.85204-13.07091 13.0709-13.07091zm796.86504-.34712c7.21886 0 13.0709 5.85205 13.0709 13.07091s-5.85204 13.0709-13.0709 13.0709c-7.21887 0-13.07091-5.85204-13.07091-13.0709s5.85204-13.07091 13.07091-13.07091zm68.52247 1.56819c6.61729 0 11.98166 5.36438 11.98166 11.98167s-5.36437 11.98166-11.98166 11.98166-11.98166-5.36437-11.98166-11.98166 5.36437-11.98167 11.98166-11.98167zm-934.47577-.18651c6.61729 0 11.98166 5.36437 11.98166 11.98166s-5.36437 11.98167-11.98166 11.98167-11.98166-5.36438-11.98166-11.98167 5.36437-11.98166 11.98166-11.98166zm-65.96876.51617c6.01571 0 10.89242 4.8767 10.89242 10.89242s-4.87671 10.89242-10.89242 10.89242c-6.01572 0-10.89242-4.8767-10.89242-10.89242s4.8767-10.89242 10.89242-10.89242zm1067.14806-.06203c6.01572 0 10.89242 4.87671 10.89242 10.89243 0 6.01571-4.8767 10.89242-10.89242 10.89242-6.01571 0-10.89242-4.87671-10.89242-10.89242 0-6.01572 4.87671-10.89243 10.89242-10.89243zm64.41529 1.93014c5.41415 0 9.80318 4.38904 9.80318 9.80318 0 5.41415-4.38903 9.80318-9.80318 9.80318s-9.80318-4.38903-9.80318-9.80318c0-5.41414 4.38903-9.80318 9.80318-9.80318zm-1195.71318-.05138c5.41415 0 9.80318 4.38903 9.80318 9.80318 0 5.41414-4.38903 9.80318-9.80318 9.80318-5.41414 0-9.80317-4.38904-9.80317-9.80318 0-5.41415 4.38903-9.80318 9.80317-9.80318zm-63.00569.98548c4.81257 0 8.71393 3.90136 8.71393 8.71393 0 4.81258-3.90136 8.71394-8.71393 8.71394-4.81258 0-8.71394-3.90136-8.71394-8.71394 0-4.81257 3.90136-8.71393 8.71394-8.71393zm1320.32753-.46095c4.81257 0 8.71393 3.90136 8.71393 8.71394 0 4.81257-3.90136 8.71393-8.71393 8.71393-4.81258 0-8.71394-3.90136-8.71394-8.71393 0-4.81258 3.90136-8.71394 8.71394-8.71394zm60.46453 1.3044c4.211 0 7.62469 3.41369 7.62469 7.6247 0 4.211-3.41369 7.62469-7.62469 7.62469s-7.62469-3.41369-7.62469-7.62469c0-4.21101 3.41369-7.6247 7.62469-7.6247zm-1439.69057-.21993c4.211 0 7.62469 3.41369 7.62469 7.62469 0 4.21101-3.41369 7.6247-7.62469 7.6247-4.21101 0-7.6247-3.41369-7.6247-7.6247 0-4.211 3.41369-7.62469 7.6247-7.62469zm-58.067262 1.76765c3.609431 0 6.535453 2.92602 6.535453 6.53545s-2.926022 6.53545-6.535453 6.53545c-3.60943 0-6.535452-2.92602-6.535452-6.53545s2.926022-6.53545 6.535452-6.53545zm1555.259302-.71262c3.60943 0 6.53545 2.92602 6.53545 6.53545s-2.92602 6.53546-6.53545 6.53546-6.53545-2.92603-6.53545-6.53546 2.92602-6.53545 6.53545-6.53545zm-1611.194747 1.80545c3.007858 0 5.44621 2.43835 5.44621 5.44621 0 3.00785-2.438352 5.44621-5.44621 5.44621-3.007859 0-5.446211-2.43836-5.446211-5.44621 0-3.00786 2.438352-5.44621 5.446211-5.44621zm1666.564407-.29553c3.00786 0 5.44621 2.43835 5.44621 5.44621s-2.43835 5.44621-5.44621 5.44621-5.44621-2.43835-5.44621-5.44621 2.43835-5.44621 5.44621-5.44621zm53.39428 1.19705c2.40628 0 4.35697 1.95068 4.35697 4.35696 0 2.40629-1.95069 4.35697-4.35697 4.35697-2.40629 0-4.35697-1.95068-4.35697-4.35697 0-2.40628 1.95068-4.35696 4.35697-4.35696zm-1772.774634-.32708c2.406287 0 4.356968 1.95068 4.356968 4.35697 0 2.40628-1.950681 4.35696-4.356968 4.35696s-4.356968-1.95068-4.356968-4.35696c0-2.40629 1.950681-4.35697 4.356968-4.35697zm700.187824-38.82224c2.13604-9.40318 11.45167-15.28551 20.80704-13.13855 9.35537 2.14695 15.20779 11.51017 13.07176 20.91335l-.24173 1.06412c-2.13604 9.40318-11.45167 15.28551-20.80704 13.13855-9.35537-2.14695-15.20779-11.51018-13.07176-20.91335zm354.15052-13.76047c9.35845-2.135 18.667 3.75917 20.79125 13.16499l.24039 1.06443c2.12424 9.40582-3.74024 18.7615-13.09868 20.8965-9.35845 2.13499-18.667-3.75917-20.79125-13.165l-.24039-1.06442c-2.12424-9.40582 3.74024-18.7615 13.09868-20.8965zm-271.00176 1.13508c4.46692-8.5423 14.90647-11.78949 23.31739-7.25279 8.41093 4.53669 11.60817 15.13931 7.14125 23.68161l-.5055.9667c-4.46692 8.54231-14.90648 11.78949-23.3174 7.2528s-11.60817-15.13931-7.14125-23.68162zm-144.09684-8.43994c8.26727 1.60699 13.66649 9.61166 12.0595 17.87893-1.607 8.26727-9.61167 13.66649-17.87894 12.0595-8.26727-1.607-13.66649-9.61167-12.05949-17.87894 1.60699-8.26727 9.61166-13.66649 17.87893-12.05949zm511.99076 12.03876c1.607 8.26727-3.79222 16.27194-12.05949 17.87893-8.26727 1.607-16.27194-3.79222-17.87893-12.05949-1.607-8.26727 3.79222-16.27194 12.05949-17.87894 8.26727-1.60699 16.27194 3.79223 17.87893 12.0595zm-189.17589-15.38482c8.14389-4.99917 18.72706-2.33149 23.63816 5.95843l.55578.93814c4.91111 8.28992 2.29042 19.06285-5.85347 24.06202-8.14388 4.99918-18.72705 2.3315-23.63816-5.95842l-.55577-.93814c-4.91111-8.28992-2.29042-19.06285 5.85346-24.06203zm259.83877 1.24124c1.49221 7.67675-3.52136 15.10966-11.1981 16.60187-7.67675 1.49221-15.10966-3.52135-16.60187-11.1981s3.52135-15.10966 11.1981-16.60187 15.10966 3.52135 16.60187 11.1981zm-654.59865-11.35357c7.67675 1.49221 12.69031 8.92512 11.1981 16.60187s-8.92512 12.69031-16.60187 11.1981-12.69031-8.92512-11.1981-16.60187 8.92512-12.69031 16.60187-11.1981zm723.12971-2.11518c1.37742 7.08623-3.25048 13.94737-10.33671 15.3248-7.08623 1.37742-13.94738-3.25048-15.3248-10.33671-1.37743-7.08623 3.25048-13.94738 10.33671-15.3248 7.08623-1.37743 13.94737 3.25048 15.3248 10.33671zm-792.11166-10.87391c7.08623 1.37743 11.71413 8.23857 10.33671 15.3248s-8.23857 11.71414-15.3248 10.33671c-7.08623-1.37742-11.71413-8.23857-10.33671-15.3248s8.23857-11.71413 15.3248-10.33671zm327.06274-9.68462c8.22133-5.022415 19.03295-2.550422 24.14843 5.52135 5.11547 8.07177 2.59768 18.68671-5.62366 23.70912l-.93037.56837c-8.22134 5.02241-19.03296 2.55042-24.14844-5.52135-5.11547-8.07177-2.59768-18.68671 5.62366-23.709122zm-104.32755 4.74303c4.7688-8.374406 15.30883-11.230914 23.54181-6.380188 8.23298 4.850728 11.04125 15.571818 6.27244 23.946218l-.53967.9477c-4.7688 8.37441-15.30883 11.23092-23.54181 6.38019-8.23298-4.85072-11.04125-15.57181-6.27244-23.94622zm308.72833-8.009765c8.23674-4.844339 18.77485-1.979767 23.53753 6.398205l.53897.9481c4.76268 8.37797 1.9464 19.09676-6.29034 23.9411s-18.77485 1.97977-23.53753-6.3982l-.53897-.9481c-4.76268-8.37797-1.9464-19.09677 6.29034-23.941105zm-111.82952 7.167675c4.65619-8.344862 15.30526-11.395329 23.78537-6.813405l.95967.518519c8.48011 4.581926 11.58002 15.061156 6.92383 23.406026-4.65618 8.34486-15.30526 11.39533-23.78537 6.8134l-.95966-.51852c-8.48012-4.58192-11.58002-15.06115-6.92384-23.40602zm-487.78469-6.06128c6.49571 1.262639 10.73795 7.55202 9.47531 14.04774-1.26263 6.49571-7.55202 10.73795-14.04773 9.47531s-10.73796-7.55202-9.47532-14.04773c1.26264-6.495714 7.55203-10.737958 14.04774-9.47532zm925.83034 8.78081c1.26264 6.49571-2.9796 12.78509-9.47531 14.04773-6.49572 1.26264-12.7851-2.9796-14.04774-9.47531-1.26264-6.49572 2.97961-12.785101 9.47532-14.047739 6.49571-1.262639 12.78509 2.979605 14.04773 9.475319zm-219.83828-9.838277c3.29074 7.752497-.32623 16.704807-8.07873 19.995547-7.75249 3.29074-16.7048-.32623-19.99554-8.07873-3.29074-7.752492.32623-16.704803 8.07872-19.995543 7.7525-3.290739 16.70481.326229 19.99555 8.078726zm-253.04232-13.88461c9.63631-.264151 17.66185 7.34705 17.92554 17.000093.2637 9.653044-7.33431 17.692514-16.97062 17.956664l-1.09051.0299c-9.63631.26415-17.66185-7.34705-17.92554-17.000096-.2637-9.653043 7.33431-17.692517 16.97062-17.956668zm-226.32619 5.549176c7.7525 3.29074 11.36946 12.243051 8.07873 19.995551-3.29074 7.75249-12.24306 11.36946-19.99555 8.07872-7.7525-3.29074-11.36947-12.24305-8.07873-19.995545 3.29074-7.752496 12.24305-11.369465 19.99555-8.078726zm763.47423 6.054592c1.14785 5.905192-2.70873 11.622819-8.61392 12.770669-5.9052 1.14785-11.62282-2.70873-12.77067-8.613926-1.14785-5.905192 2.70873-11.622815 8.61392-12.770668s11.62282 2.708732 12.77067 8.613925zm-1055.12898-9.025038c5.90519 1.147853 9.76178 6.865476 8.61393 12.770668-1.14786 5.905189-6.86548 9.761779-12.77067 8.613929-5.90519-1.14786-9.76178-6.865481-8.61393-12.770673 1.14786-5.905192 6.86548-9.761777 12.77067-8.613924zm-63.21225-11.06279c5.31467 1.033067 8.7856 6.178928 7.75253 11.493601s-6.17893 8.785599-11.4936 7.752532c-5.31467-1.033068-8.7856-6.178929-7.75253-11.493602 1.03307-5.314672 6.17893-8.785599 11.4936-7.752531zm1180.63329 7.655842c1.03307 5.314673-2.43786 10.460533-7.75253 11.493601s-10.46053-2.437859-11.4936-7.752532 2.43786-10.460533 7.75253-11.493601 10.46053 2.437859 11.4936 7.752532zm-726.04277-22.855522c7.12773-6.617028 18.26126-6.193533 24.86744.945901 6.60618 7.139435 6.18338 18.291252-.94435 24.90828l-.80662.748824c-7.12773 6.617028-18.26126 6.193533-24.86744-.945902s-6.18338-18.291251.94435-24.908279zm236.31493.159899c6.61498-7.131223 17.7493-7.5412 24.8692-.915709l.80574.749783c7.1199 6.625491 7.52923 17.777512.91425 24.908736-6.61497 7.131224-17.74929 7.541201-24.8692.915709l-.80573-.749782c-7.1199-6.625492-7.52923-17.777513-.91426-24.908737zm208.93575 10.415383c3.05569 7.198746-.30293 15.511607-7.50167 18.567294-7.19875 3.055686-15.51161-.302927-18.5673-7.501674-3.05568-7.198747.30293-15.511607 7.50168-18.567294 7.19874-3.055686 15.5116.302927 18.56729 7.501674zm-613.28905-7.616149c7.19874 3.055687 10.55736 11.368548 7.50167 18.567294-3.05569 7.198747-11.36855 10.557361-18.56729 7.501674-7.19875-3.055687-10.55736-11.368547-7.50168-18.567294 3.05569-7.198747 11.36855-10.55736 18.5673-7.501674zm954.24139 8.139222c.91829 4.724154-2.16698 9.298252-6.89114 10.216535-4.72415.918282-9.29825-2.166986-10.21653-6.89114-.91828-4.724153 2.16698-9.298252 6.89114-10.216534 4.72415-.918283 9.29825 2.166986 10.21653 6.891139zm-1301.87398-7.636285c4.72415.918282 7.80942 5.492381 6.89114 10.216534-.91828 4.724154-5.49238 7.809422-10.21654 6.89114-4.72415-.918283-7.80942-5.492381-6.89114-10.216535.91829-4.724153 5.49238-7.809421 10.21654-6.891139zm870.00871-12.202298c4.70952 6.982158 2.86719 16.46014-4.11497 21.169666-6.98216 4.709525-16.46014 2.867192-21.16966-4.114966-4.70953-6.982159-2.8672-16.460141 4.11496-21.169667 6.98216-4.709525 16.46014-2.867192 21.16967 4.114967zm-427.53231-4.646015c6.98216 4.709525 8.82449 14.187508 4.11497 21.169666-4.70953 6.982159-14.18751 8.824492-21.16967 4.114966-6.98216-4.709525-8.82449-14.187507-4.11496-21.169666 4.70952-6.982158 14.1875-8.824491 21.16966-4.114966zm-501.7379 6.411261c4.13363.803497 6.83324 4.805833 6.02975 8.939467-.8035 4.133635-4.80584 6.833244-8.93947 6.029747-4.13364-.803497-6.83325-4.805833-6.02975-8.939467.8035-4.133635 4.80583-6.833244 8.93947-6.029747zm1418.33267 5.846868c.8035 4.133634-1.89611 8.13597-6.02975 8.939467-4.13363.803497-8.13597-1.896112-8.93947-6.029747-.80349-4.133634 1.89612-8.13597 6.02975-8.939467 4.13363-.803498 8.13597 1.896112 8.93947 6.029747zm-1076.79037-21.717232c6.64499 2.820634 9.74525 10.494043 6.92462 17.13904s-10.49404 9.745256-17.13904 6.924622-9.74526-10.494043-6.92462-17.13904c2.82063-6.644997 10.49404-9.745256 17.13904-6.924622zm743.25884 6.271126c2.82064 6.644996-.27962 14.318406-6.92462 17.13904s-14.31841-.279625-17.13904-6.924622.27963-14.318406 6.92462-17.13904c6.645-2.820634 14.31841.279625 17.13904 6.924622zm-462.25413-15.993074c8.7091-4.137121 19.16989-.528112 23.36483 8.060948 4.19494 8.589059.53549 18.905667-8.17361 23.042788l-.98557.468182c-8.7091 4.137121-19.16989.528112-23.36483-8.060947-4.19494-8.58906-.53549-18.905667 8.1736-23.042788zm142.75358 7.811c4.20078-8.586146 14.6641-12.188215 23.37048-8.045446l.98527.468822c8.70638 4.142769 12.35889 14.461593 8.15811 23.047739s-14.6641 12.188214-23.37048 8.045446l-.98527-.468822c-8.70638-4.142769-12.35889-14.461593-8.15811-23.047739zm708.92871 13.220652c.68871 3.543115-1.62524 6.973689-5.16836 7.662401-3.54311.688712-6.97369-1.62524-7.6624-5.168355s1.62524-6.973689 5.16836-7.6624c3.54311-.688712 6.97368 1.625239 7.6624 5.168354zm-1530.52773-5.407089c3.54311.688712 5.85706 4.119285 5.16835 7.6624-.68871 3.543116-4.11929 5.857067-7.6624 5.168355-3.54312-.688712-5.85707-4.119286-5.16836-7.662401.68872-3.543115 4.11929-5.857066 7.66241-5.168354zm769.78479-17.778701c1.4315-9.512437 10.3216-16.066069 19.85659-14.637947l1.07903.161615c9.53499 1.428122 16.10415 10.297198 14.67265 19.809636-1.43151 9.512437-10.32161 16.06607-19.85659 14.637947l-1.07904-.161615c-9.53499-1.428122-16.10415-10.297198-14.67264-19.809636zm-35.85143-14.717634c9.53663-1.416952 18.41893 5.147387 19.83919 14.661862 1.42025 9.514475-5.15938 18.376148-14.69601 19.7931l-1.07922.160351c-9.53663 1.416952-18.41894-5.147387-19.83919-14.661862s5.15937-18.376147 14.696-19.7931zm849.52793 27.026593c.57393 2.952596-1.35437 5.811408-4.30696 6.385334-2.9526.573927-5.81141-1.354366-6.38534-4.306962-.57392-2.952596 1.35437-5.811407 4.30697-6.385334 2.95259-.573927 5.8114 1.354366 6.38533 4.306962zm-1638.772041-4.341573c2.952596.573927 4.880889 3.432738 4.306963 6.385334-.573927 2.952596-3.432738 4.880889-6.385334 4.306962-2.952596-.573926-4.880889-3.432738-4.306963-6.385334.573927-2.952596 3.432738-4.880888 6.385334-4.306962zm1007.428101-22.912317c5.95526 5.955257 5.95526 15.610636 0 21.565893s-15.61063 5.955257-21.56589 0-5.95526-15.610636 0-21.565893c5.95526-5.955256 15.61063-5.955256 21.56589 0zm-360.37738-.380122c5.95526 5.955257 5.95526 15.610636 0 21.565892-5.95526 5.955257-15.61063 5.955257-21.56589 0-5.95526-5.955256-5.95526-15.610635 0-21.565892s15.61063-5.955257 21.56589 0zm-257.27566 1.709528c6.09125 2.585581 8.93316 9.61954 6.34757 15.710787-2.58558 6.091247-9.61954 8.933151-15.71078 6.34757-6.09125-2.585581-8.93315-9.61954-6.34757-15.710787s9.61954-8.933151 15.71078-6.34757zm868.96502 6.275742c2.58558 6.091247-.25632 13.125206-6.34757 15.710787s-13.12521-.256323-15.71079-6.34757.25633-13.125206 6.34757-15.710787c6.09125-2.585581 13.12521.256323 15.71079 6.34757zm-158.2117-6.636419c4.37313 6.483433 2.66239 15.284417-3.82104 19.657547-6.48343 4.373131-15.28442 2.662393-19.65755-3.82104s-2.66239-15.284416 3.82104-19.657547 15.28442-2.662393 19.65755 3.82104zm-548.6568-4.252932c6.48344 4.373131 8.19418 13.174115 3.82104 19.657548-4.37313 6.483432-13.17411 8.19417-19.65754 3.82104-6.48344-4.373131-8.19417-13.174115-3.82104-19.657548 4.37313-6.483432 13.17411-8.19417 19.65754-3.82104zm1138.6899 20.492516c.45914 2.362077-1.08349 4.649126-3.44557 5.108267s-4.64913-1.083493-5.10827-3.445569c-.45914-2.362077 1.0835-4.649126 3.44557-5.108268 2.36208-.459141 4.64913 1.083493 5.10827 3.44557zm-1742.909161-3.638007c2.362076.459141 3.90471 2.74619 3.445569 5.108267s-2.74619 3.904711-5.108267 3.44557-3.904711-2.74619-3.44557-5.108267c.459142-2.362077 2.746191-3.904711 5.108268-3.44557zm1371.285711-30.777333c2.35053 5.537497-.23302 11.932005-5.77052 14.282534-5.5375 2.350528-11.93201-.233021-14.28253-5.770519-2.35053-5.537497.23302-11.932005 5.77051-14.282533 5.5375-2.350529 11.93201.23302 14.28254 5.770518zm-991.70812-5.811055c5.53749 2.350528 8.12104 8.745037 5.77051 14.282534-2.35052 5.537497-8.74503 8.121046-14.28253 5.770518s-8.12105-8.745036-5.77052-14.282534c2.35053-5.537497 8.74504-8.121046 14.28254-5.770518zm639.35363-10.300315c6.98216 4.709526 8.82449 14.187508 4.11497 21.169666-4.70953 6.982159-14.18741 8.824344-21.16957 4.114819s-8.82459-14.18736-4.11507-21.169519c4.70953-6.982158 14.18751-8.824491 21.16967-4.114966zm-279.08187 4.100487c4.70952 6.982159 2.86719 16.460141-4.11497 21.169667-6.98216 4.709525-16.46014 2.867192-21.16966-4.114967-4.70953-6.982158-2.8672-16.46014 4.11496-21.169666 6.98216-4.709525 16.46014-2.867192 21.16967 4.114966zm-195.28664-12.330058c5.98471 4.036736 7.56385 12.160721 3.52711 18.145428-4.03673 5.984707-12.16072 7.56385-18.14542 3.527114-5.98471-4.036736-7.56385-12.160721-3.52712-18.145428 4.03674-5.984707 12.16072-7.56385 18.14543-3.527114zm666.81822 3.390546c4.03673 5.984707 2.45759 14.108692-3.52712 18.145428s-14.10869 2.457593-18.14543-3.527114c-4.03673-5.984707-2.45759-14.108692 3.52712-18.145428 5.9847-4.036736 14.10869-2.457594 18.14543 3.527114zm-564.88957-12.761643c5.52989 5.529882 5.52989 14.495591 0 20.025472-5.52988 5.529881-14.49559 5.529881-20.02547 0s-5.52988-14.49559 0-20.025472c5.52988-5.529881 14.49559-5.529881 20.02547 0zm463.78098-.454264c5.52988 5.529882 5.52988 14.495591 0 20.025472s-14.49559 5.529881-20.02547 0-5.52988-14.49559 0-20.025472c5.52988-5.529881 14.49559-5.529881 20.02547 0zm-790.27685 4.477063c4.98375 2.115475 7.30894 7.870532 5.19347 12.85428-2.11548 4.983748-7.87053 7.308942-12.85428 5.193467-4.98375-2.115476-7.30894-7.870533-5.19347-12.854281 2.11548-4.983747 7.87054-7.308942 12.85428-5.193466zm1110.50048 4.720629c2.11547 4.983748-.20972 10.738805-5.19347 12.854281-4.98375 2.115475-10.73881-.209719-12.85428-5.193467-2.11548-4.983748.20972-10.738805 5.19346-12.85428 4.98375-2.115476 10.73881.209719 12.85429 5.193466zm-458.70017-16.585111c7.7525 3.29074 11.36946 12.243051 8.07873 19.995547-3.29074 7.752497-12.24306 11.369465-19.99555 8.078726-7.7525-3.29074-11.36947-12.243051-8.07873-19.995547 3.29074-7.752497 12.24305-11.369465 19.99555-8.078726zm-186.77079 8.266502c3.15494 7.808747-.61772 16.69657-8.42647 19.851508-7.80874 3.154939-16.69657-.617718-19.85151-8.426465s.61772-16.69657 8.42647-19.851509c7.80875-3.154938 16.69657.617719 19.85151 8.426466zm49.23317-11.177386c1.607 8.267269-3.79222 16.27194-12.05949 17.878935-8.26727 1.606994-16.27194-3.792225-17.87894-12.059494-1.60699-8.267269 3.79223-16.271941 12.0595-17.878935 8.26727-1.606995 16.27194 3.792225 17.87893 12.059494zm87.42558-12.272261c8.26727 1.606994 13.66649 9.611666 12.05949 17.878935-1.60699 8.267269-9.61167 13.666488-17.87893 12.059494-8.26727-1.606994-13.66649-9.611666-12.0595-17.878935 1.607-8.267269 9.61167-13.666489 17.87894-12.059494zm-53.0337-5.510812c8.422 0 15.24939 6.827384 15.24939 15.249389s-6.82739 15.249389-15.24939 15.249389c-8.42201 0-15.24939-6.827384-15.24939-15.249389s6.82738-15.249389 15.24939-15.249389zm617.62379 14.80422c1.88043 4.429998-.18641 9.545605-4.61641 11.426027-4.43 1.880423-9.5456-.186417-11.42603-4.616414-1.88042-4.429998.18642-9.545605 4.61642-11.426027 4.43-1.880423 9.5456.186416 11.42602 4.616414zm-1224.04151-4.823408c4.43 1.880422 6.49684 6.996029 4.61642 11.426027-1.88043 4.429997-6.99603 6.496837-11.42603 4.616414-4.43-1.880422-6.49684-6.996029-4.61641-11.426027 1.88042-4.429998 6.99602-6.496837 11.42602-4.616414zm224.49276-9.037283c5.48598 3.700341 6.93353 11.147327 3.23318 16.633309-3.70034 5.485982-11.14732 6.933529-16.6333 3.233188-5.48599-3.700341-6.93353-11.147328-3.23319-16.633309 3.70034-5.485982 11.14732-6.933529 16.63331-3.233188zm780.87245 2.89011c3.70034 5.485982 2.25279 12.932968-3.23319 16.633309s-12.93297 2.252794-16.63331-3.233188c-3.70034-5.485981-2.25279-12.932967 3.23319-16.633309 5.48598-3.700341 12.93297-2.252794 16.63331 3.233188zm-569.20537-13.617752c4.37313 6.483433 2.66239 15.284416-3.82104 19.657547-6.48344 4.373131-15.28442 2.662393-19.65755-3.82104s-2.66239-15.284417 3.82104-19.657547c6.48343-4.373131 15.28442-2.662393 19.65755 3.82104zm360.50103-4.026527c6.48343 4.373131 8.19417 13.174115 3.82104 19.657547-4.37313 6.483433-13.17412 8.194171-19.65755 3.82104-6.48343-4.37313-8.19417-13.174114-3.82104-19.657547s13.17411-8.194171 19.65755-3.82104zm482.17085 5.983578c1.64537 3.876248-.16312 8.352404-4.03937 9.997773-3.87624 1.64537-8.3524-.163114-9.99777-4.039362-1.64537-3.876249.16311-8.352404 4.03936-9.997774s8.35241.163115 9.99778 4.039363zm-1334.61949-4.456885c3.87625 1.64537 5.68473 6.121526 4.03936 9.997774s-6.12153 5.684732-9.99777 4.039363c-3.87625-1.64537-5.68474-6.121526-4.03937-9.997774s6.12153-5.684732 9.99778-4.039363zm952.86734-8.201375c5.1045 5.104506 5.1045 13.380545 0 18.485051-5.10451 5.104505-13.38055 5.104505-18.48505 0-5.10451-5.104506-5.10451-13.380545 0-18.485051 5.1045-5.104506 13.38054-5.104506 18.48505 0zm-562.92095-.060989c5.1045 5.104506 5.1045 13.380545 0 18.485051-5.10451 5.104506-13.38055 5.104506-18.48505 0-5.10451-5.104506-5.10451-13.380545 0-18.485051 5.1045-5.104505 13.38054-5.104505 18.48505 0zm725.13496-11.421186c3.36395 4.987256 2.048 11.757243-2.93926 15.12119-4.98725 3.363947-11.75724 2.047995-15.12119-2.939261-3.36395-4.987257-2.04799-11.757244 2.93926-15.121191 4.98726-3.363946 11.75725-2.047994 15.12119 2.939262zm-890.66306-3.739313c4.98726 3.363947 6.30321 10.133934 2.93926 15.12119-3.36394 4.987256-10.13393 6.303208-15.12119 2.939262-4.98725-3.363947-6.30321-10.133935-2.93926-15.121191s10.13393-6.303208 15.12119-2.939261zm325.8955-2.515402c2.92958 7.250979-.5736 15.503958-7.82458 18.433543-7.25098 2.929586-15.50396-.573595-18.43354-7.824575-2.92959-7.250979.57359-15.503958 7.82457-18.433543 7.25098-2.929586 15.50396.573595 18.43355 7.824575zm243.23074-7.757805c7.19875 3.055686 10.55736 11.368547 7.50168 18.567294-3.05569 7.198746-11.36855 10.55736-18.5673 7.501673-7.19874-3.055686-10.55736-11.368547-7.50167-18.567294 3.05569-7.198746 11.36855-10.55736 18.56729-7.501673zm593.73335 16.196492c1.41031 3.322498-.13982 7.159203-3.46231 8.56952-3.3225 1.410317-7.15921-.139813-8.56953-3.462311-1.41031-3.322499.13982-7.159203 3.46232-8.56952 3.32249-1.410317 7.1592.139812 8.56952 3.462311zm-1441.24671-3.464623c3.32249 1.410317 4.87262 5.247022 3.46231 8.569521-1.41032 3.322498-5.24703 4.872627-8.56952 3.46231-3.3225-1.410316-4.87263-5.247021-3.46231-8.56952 1.41031-3.322498 5.24702-4.872628 8.56952-3.462311zm666.32929-20.287793c1.49221 7.67675-3.52135 15.10966-11.1981 16.601869-7.67675 1.492208-15.10966-3.521352-16.60187-11.198102s3.52135-15.109659 11.1981-16.601868 15.10966 3.521352 16.60187 11.198101zm116.94844-11.6608c7.67675 1.492209 12.69031 8.925118 11.1981 16.601868s-8.92512 12.69031-16.60187 11.198101-12.69031-8.925118-11.1981-16.601868 8.92512-12.69031 16.60187-11.198101zm707.35143 14.962826c1.17527 2.768749-.11651 5.966003-2.88526 7.141267s-5.966-.116511-7.14126-2.885259c-1.17527-2.768749.11651-5.966003 2.88526-7.141267 2.76874-1.175264 5.966.11651 7.14126 2.885259zm-1541.63493-3.50913c2.76875 1.175264 4.06052 4.372518 2.88526 7.141267-1.17527 2.768748-4.37252 4.060523-7.14127 2.885259-2.768748-1.175264-4.060523-4.372519-2.885259-7.141267 1.175264-2.768749 4.372519-4.060523 7.141269-2.885259zm767.37412-18.283766c7.82043 0 14.16015 6.339714 14.16015 14.160147s-6.33972 14.160146-14.16015 14.160146-14.16015-6.339713-14.16015-14.160146 6.33972-14.160147 14.16015-14.160147zm338.36326 3.806044c4.67913 4.679131 4.67913 12.2655 0 16.94463s-12.2655 4.67913-16.94463 0-4.67913-12.265499 0-16.94463c4.67913-4.67913 12.2655-4.67913 16.94463 0zm-109.65279-3.71789c5.98471 4.036736 7.56385 12.160721 3.52712 18.145428-4.03674 5.984707-12.16072 7.56385-18.14543 3.527114s-7.56385-12.160721-3.52712-18.145428c4.03674-5.984708 12.16073-7.56385 18.14543-3.527114zm-550.43275 3.454518c4.67913 4.67913 4.67913 12.2655 0 16.94463-4.67914 4.67913-12.2655 4.67913-16.94463 0s-4.67913-12.2655 0-16.94463 12.26549-4.67913 16.94463 0zm110.64445-.17676c4.03674 5.984707 2.45759 14.108692-3.52711 18.145428-5.98471 4.036736-14.1087 2.457593-18.14543-3.527114-4.03674-5.984707-2.4576-14.108692 3.52711-18.145428s14.10869-2.457593 18.14543 3.527114zm716.54392 1.72352c3.02755 4.48853 1.84319 10.581519-2.64534 13.609071s-10.58152 1.843195-13.60907-2.645335c-3.02755-4.488531-1.8432-10.58152 2.64533-13.609072s10.58152-1.843195 13.60908 2.645336zm-997.64705-3.131525c4.48853 3.027552 5.67289 9.120541 2.64534 13.609071-3.02756 4.488531-9.12054 5.672888-13.60907 2.645336s-5.67289-9.120541-2.64534-13.609071c3.02755-4.488531 9.12054-5.672888 13.60907-2.645336zm-325.367675-3.024916c2.214999.940211 3.248418 3.498014 2.308207 5.713013s-3.498014 3.248419-5.713013 2.308208c-2.214999-.940212-3.248419-3.498015-2.308208-5.713014.940212-2.214999 3.498015-3.248418 5.713014-2.308207zm1640.204215 2.253081c.94021 2.214999-.09321 4.772802-2.30821 5.713013s-4.7728-.093208-5.71301-2.308207.09321-4.772802 2.30821-5.713014c2.215-.940211 4.7728.093209 5.71301 2.308208zm-963.47727-31.60108c2.70424 6.693212-.52947 14.311346-7.22268 17.015579s-14.31135-.529473-17.01558-7.222684c-2.70423-6.693212.52947-14.311346 7.22268-17.015579 6.69322-2.704233 14.31135.529473 17.01558 7.222684zm298.70302-7.405542c6.64499 2.820634 9.74525 10.494044 6.92462 17.13904-2.82064 6.644997-10.49405 9.745256-17.13904 6.924622-6.645-2.820633-9.74526-10.494043-6.92462-17.13904 2.82063-6.644997 10.49404-9.745256 17.13904-6.924622zm398.2372 8.614919c2.69115 3.989805 1.63839 9.405795-2.35141 12.096952-3.98981 2.691158-9.4058 1.638396-12.09695-2.351409-2.69116-3.989805-1.6384-9.405795 2.35141-12.096952 3.9898-2.691158 9.40579-1.638396 12.09695 2.351409zm-1100.52384-2.885686c3.9898 2.691157 5.04257 8.107147 2.35141 12.096952s-8.10715 5.042566-12.09695 2.351409c-3.98981-2.691157-5.04257-8.107147-2.35141-12.096952 2.69115-3.989805 8.10714-5.042567 12.09695-2.351409zm929.5199-11.00683c4.25375 4.253755 4.25375 11.150455 0 15.404209-4.25376 4.253755-11.15046 4.253755-15.40421 0-4.25376-4.253754-4.25376-11.150454 0-15.404209 4.25375-4.253754 11.15045-4.253754 15.40421 0zm-755.27477-.152886c4.25375 4.253755 4.25375 11.150454 0 15.404209-4.25376 4.253754-11.15046 4.253754-15.40421 0-4.25376-4.253755-4.25376-11.150454 0-15.404209 4.25375-4.253755 11.15045-4.253755 15.40421 0zm636.23145-12.969889c5.48598 3.700342 6.93353 11.147328 3.23319 16.633309-3.70034 5.485982-11.14733 6.93353-16.63331 3.233188-5.48598-3.700341-6.93353-11.147327-3.23319-16.633309s11.14733-6.933529 16.63331-3.233188zm-516.11251 2.998294c3.70034 5.485981 2.25279 12.932968-3.23319 16.633309s-12.93297 2.252794-16.63331-3.233188-2.25279-12.932968 3.23319-16.633309 12.93297-2.252794 16.63331 3.233188zm330.55103-7.691791c7.08623 1.377424 11.71413 8.238571 10.33671 15.324802-1.37742 7.08623-8.23857 11.714133-15.3248 10.336709s-11.71413-8.238571-10.33671-15.324802c1.37742-7.08623 8.23857-11.714132 15.3248-10.336709zm-145.32718 10.218087c1.37742 7.08623-3.25048 13.947378-10.33671 15.324801-7.08623 1.377424-13.94738-3.250478-15.3248-10.336709-1.37742-7.08623 3.25048-13.947378 10.33671-15.324801 7.08623-1.377424 13.94738 3.250478 15.3248 10.336709zm64.54212-18.367414c7.21886 0 13.0709 5.852043 13.0709 13.070904 0 7.218862-5.85204 13.070905-13.0709 13.070905s-13.0709-5.852043-13.0709-13.070905c0-7.218861 5.85204-13.070904 13.0709-13.070904zm-594.69188 5.21145c3.49107 2.354762 4.41224 7.093754 2.05748 10.584833s-7.09376 4.412246-10.58483 2.057483c-3.49108-2.354763-4.41225-7.093754-2.05749-10.584833s7.09376-4.412246 10.58484-2.057483zm1199.44987 2.01411c2.35477 3.491079 1.4336 8.230071-2.05748 10.584833-3.49108 2.354763-8.23007 1.433596-10.58483-2.057483-2.35477-3.491079-1.4336-8.23007 2.05748-10.584833s8.23007-1.433596 10.58483 2.057483zm-175.06149-25.513955c3.82838 3.828379 3.82838 10.035408 0 13.863788-3.82838 3.828379-10.03541 3.828379-13.86379 0-3.82838-3.82838-3.82838-10.035409 0-13.863788 3.82838-3.82838 10.03541-3.82838 13.86379 0zm-845.36912-.247918c3.82838 3.82838 3.82838 10.035409 0 13.863788-3.82838 3.82838-10.03541 3.82838-13.86378 0-3.82838-3.828379-3.82838-10.035408 0-13.863788 3.82837-3.828379 10.0354-3.828379 13.86378 0zm599.26497-12.268893c6.09125 2.585581 8.93315 9.61954 6.34757 15.710788-2.58558 6.091247-9.61954 8.933151-15.71079 6.34757-6.09124-2.585581-8.93315-9.61954-6.34757-15.710788 2.58558-6.091247 9.61954-8.933151 15.71079-6.34757zm-351.05578 6.534896c2.47888 6.135444-.48535 13.118733-6.62079 15.597613-6.13545 2.478881-13.11874-.48535-15.59762-6.620794s.48535-13.118733 6.6208-15.597614c6.13544-2.47888 13.11873.485351 15.59761 6.620795zm-475.81492-1.96635c2.99235 2.018368 3.78192 6.08036 1.76355 9.072714-2.01836 2.992353-6.08036 3.781925-9.07271 1.763557s-3.78192-6.080361-1.76356-9.072714c2.01837-2.992354 6.08036-3.781925 9.07272-1.763557zm1295.25642 1.660919c2.01836 2.992354 1.22879 7.054346-1.76356 9.072714s-7.05435 1.228797-9.07271-1.763557c-2.01837-2.992353-1.2288-7.054346 1.76355-9.072714 2.99236-2.018368 7.05435-1.228797 9.07272 1.763557zm-939.04494-13.883436c3.36394 4.987256 2.04799 11.757244-2.93926 15.12119-4.98726 3.363947-11.75725 2.047995-15.12119-2.939261-3.36395-4.987256-2.048-11.757244 2.93926-15.12119 4.98725-3.363947 11.75724-2.047995 15.12119 2.939261zm589.47365-3.188132c4.98726 3.363947 6.30321 10.133934 2.93926 15.12119-3.36394 4.987256-10.13393 6.303209-15.12119 2.939262-4.98725-3.363947-6.30321-10.133934-2.93926-15.12119s10.13393-6.303208 15.12119-2.939262zm-382.0401-7.197103c1.26264 6.495712-2.9796 12.785097-9.47532 14.047735-6.49571 1.262638-12.78509-2.979605-14.04773-9.475317-1.26264-6.495711 2.9796-12.785096 9.47532-14.047734 6.49571-1.262639 12.78509 2.979605 14.04773 9.475316zm172.87467-9.919495c6.49571 1.262638 10.73795 7.552023 9.47531 14.047735-1.26263 6.495711-7.55202 10.737955-14.04773 9.475316-6.49571-1.262638-10.73796-7.552023-9.47532-14.047734 1.26264-6.495712 7.55203-10.737955 14.04774-9.475317zm-92.68537-9.155716c6.61729 0 11.98167 5.364373 11.98167 11.981662 0 6.61729-5.36438 11.981663-11.98167 11.981663s-11.98166-5.364373-11.98166-11.981663c0-6.617289 5.36437-11.981662 11.98166-11.981662zm697.3416 13.361523c1.68198 2.493628 1.024 5.878622-1.46963 7.560595-2.49363 1.681974-5.87862 1.023997-7.56059-1.469631-1.68198-2.493628-1.024-5.878621 1.46963-7.560595 2.49363-1.681973 5.87862-1.023997 7.56059 1.469631zm-1387.94346-1.826113c2.49363 1.681973 3.15161 5.066967 1.46963 7.560595-1.68197 2.493628-5.06696 3.151604-7.56059 1.469631-2.49363-1.681974-3.15161-5.066967-1.46963-7.560595 1.68197-2.493628 5.06696-3.151604 7.56059-1.469631zm1162.9049-5.326923c3.403 3.403004 3.403 8.920363 0 12.323367-3.40301 3.403004-8.92037 3.403004-12.32337 0s-3.403-8.920363 0-12.323367 8.92036-3.403004 12.32337 0zm-933.48809-.030079c3.40301 3.403004 3.40301 8.920363 0 12.323367-3.403 3.403004-8.92036 3.403004-12.32336 0-3.40301-3.403004-3.40301-8.920363 0-12.323367 3.403-3.403004 8.92036-3.403004 12.32336 0zm669.50074-30.124704c5.5375 2.350528 8.12105 8.745037 5.77052 14.282534s-8.74504 8.121046-14.28253 5.770518c-5.5375-2.350528-8.12105-8.745036-5.77052-14.282534 2.35053-5.537497 8.74503-8.121046 14.28253-5.770518zm-402.42086 5.820682c2.25353 5.577677-.44122 11.926122-6.0189 14.179649-5.57768 2.253528-11.92612-.441227-14.17965-6.018903-2.25353-5.577677.44123-11.926122 6.0189-14.179649 5.57768-2.253528 11.92613.441227 14.17965 6.018903zm531.70334-8.116828c4.48853 3.027552 5.67289 9.12054 2.64534 13.609071-3.02755 4.48853-9.12054 5.672887-13.60907 2.645335s-5.67289-9.12054-2.64534-13.609071c3.02755-4.48853 9.12054-5.672887 13.60907-2.645335zm-661.69067 2.546716c3.02755 4.488531 1.84319 10.581519-2.64534 13.609071s-10.58151 1.843195-13.60907-2.645335c-3.02755-4.48853-1.84319-10.581519 2.64534-13.609071s10.58152-1.843195 13.60907 2.645335zm1064.23412 7.593275c1.34558 1.994903.8192 4.702898-1.17571 6.048476-1.9949 1.345579-4.70289.819198-6.04847-1.175704-1.34558-1.994903-.8192-4.702898 1.1757-6.048476 1.99491-1.345579 4.7029-.819198 6.04848 1.175704zm-1475.69206-1.209135c1.9949 1.345579 2.52128 4.053574 1.1757 6.048476-1.34557 1.994903-4.05357 2.521284-6.04847 1.175705s-2.52129-4.053574-1.17571-6.048476 4.05358-2.521283 6.04848-1.175705zm231.07145-17.426663c2.97763 2.977628 2.97763 7.805318 0 10.782946-2.97762 2.977629-7.80531 2.977629-10.78294 0-2.97763-2.977628-2.97763-7.805318 0-10.782946s7.80532-2.977628 10.78294 0zm1018.64399-.657063c2.97763 2.977629 2.97763 7.805318 0 10.782947-2.97763 2.977628-7.80532 2.977628-10.78295 0-2.97763-2.977629-2.97763-7.805318 0-10.782947 2.97763-2.977628 7.80532-2.977628 10.78295 0zm-607.78299-10.453057c1.14785 5.905192-2.70873 11.622815-8.61393 12.770668-5.90519 1.147853-11.62281-2.708732-12.77066-8.613924-1.14786-5.905192 2.70873-11.622815 8.61392-12.770668s11.62282 2.708732 12.77067 8.613924zm199.27803-8.78965c5.90519 1.147853 9.76178 6.865476 8.61392 12.770668-1.14785 5.905192-6.86547 9.761777-12.77066 8.613924-5.9052-1.147853-9.76178-6.865476-8.61393-12.770668s6.86548-9.761777 12.77067-8.613924zm-106.56105-10.474974c6.01572 0 10.89243 4.876703 10.89243 10.89242 0 6.015718-4.87671 10.892421-10.89243 10.892421-6.01571 0-10.89242-4.876703-10.89242-10.892421 0-6.015717 4.87671-10.89242 10.89242-10.89242zm-358.98632-9.607093c2.69116 3.989804 1.6384 9.405794-2.35141 12.096952-3.9898 2.691157-9.40579 1.638395-12.09695-2.35141-2.69116-3.989804-1.6384-9.405794 2.35141-12.096952 3.9898-2.691157 9.40579-1.638395 12.09695 2.35141zm730.94463-2.374605c3.9898 2.691157 5.04256 8.107147 2.35141 12.096952-2.69116 3.989805-8.10715 5.042567-12.09695 2.351409-3.98981-2.691157-5.04257-8.107147-2.35141-12.096952 2.69115-3.989804 8.10714-5.042566 12.09695-2.351409zm-590.72984.313651c2.02818 5.019909-.3971 10.733509-5.41701 12.761684s-10.73351-.397105-12.76169-5.417014c-2.02817-5.019908.39711-10.733509 5.41702-12.761684 5.0199-2.028174 10.73351.397105 12.76168 5.417014zm451.81056-5.419338c4.98375 2.115475 7.30894 7.870532 5.19347 12.85428-2.11548 4.983748-7.87054 7.308942-12.85428 5.193466-4.98375-2.115475-7.30895-7.870532-5.19347-12.85428s7.87053-7.308942 12.85428-5.193466zm321.6007 6.863776c2.55225 2.552253 2.55225 6.690272 0 9.242525-2.55226 2.552253-6.69028 2.552253-9.24253 0s-2.55225-6.690272 0-9.242525 6.69027-2.552253 9.24253 0zm-1099.53627-.005435c2.55225 2.552253 2.55225 6.690273 0 9.242525-2.55225 2.552253-6.69027 2.552253-9.24253 0-2.55225-2.552252-2.55225-6.690272 0-9.242525 2.55226-2.552253 6.69028-2.552253 9.24253 0zm664.11939-41.11434c5.31468 1.033068 8.7856 6.178928 7.75253 11.493601-1.03306 5.314673-6.17892 8.7856-11.4936 7.752532-5.31467-1.033068-8.7856-6.178928-7.75253-11.493601s6.17893-8.7856 11.4936-7.752532zm-225.68139 7.659805c1.03307 5.314673-2.43786 10.460533-7.75253 11.493601-5.31468 1.033068-10.46054-2.437859-11.49361-7.752532-1.03306-5.314673 2.43786-10.460533 7.75254-11.493601 5.31467-1.033068 10.46053 2.437859 11.4936 7.752532zm700.35911-4.505945c2.12688 2.126878 2.12688 5.575227 0 7.702105-2.12687 2.126877-5.57522 2.126877-7.7021 0-2.12688-2.126878-2.12688-5.575227 0-7.702105 2.12688-2.126877 5.57523-2.126877 7.7021 0zm-1178.45317-.355062c2.12688 2.126877 2.12688 5.575227 0 7.702104-2.12687 2.126878-5.57522 2.126878-7.7021 0-2.12688-2.126877-2.12688-5.575227 0-7.702104 2.12688-2.126878 5.57523-2.126878 7.7021 0zm585.3141-14.280161c5.41415 0 9.80318 4.389032 9.80318 9.803178s-4.38903 9.803179-9.80318 9.803179c-5.41414 0-9.80317-4.389033-9.80317-9.803179s4.38903-9.803178 9.80317-9.803178zm-393.88014 4.481539c2.35476 3.491079 1.4336 8.23007-2.05748 10.584833-3.49108 2.354762-8.23007 1.433596-10.58484-2.057483-2.35476-3.49108-1.43359-8.230071 2.05749-10.584834 3.49108-2.354762 8.23007-1.433596 10.58483 2.057484zm798.22321-2.515362c3.49107 2.354763 4.41224 7.093754 2.05748 10.584833s-7.09376 4.412246-10.58483 2.057483c-3.49108-2.354762-4.41225-7.093754-2.05749-10.584833s7.09376-4.412246 10.58484-2.057483zm-648.76865-7.333093c1.80282 4.462141-.35299 9.540898-4.81513 11.34372s-9.54089-.352982-11.34372-4.815124c-1.80282-4.462141.35299-9.540897 4.81513-11.343719s9.54089.352982 11.34372 4.815123zm500.21257-5.174428c4.43 1.880422 6.49684 6.996029 4.61641 11.426027-1.88042 4.429997-6.99602 6.496837-11.42602 4.616414-4.43-1.880422-6.49684-6.996029-4.61642-11.426027 1.88043-4.429998 6.99603-6.496837 11.42603-4.616414zm373.49343-12.270962c1.7015 1.701502 1.7015 4.460182 0 6.161684s-4.46018 1.701502-6.16168 0-1.7015-4.460182 0-6.161684 4.46018-1.701502 6.16168 0zm-1253.41932-.078953c1.7015 1.701502 1.7015 4.460182 0 6.161684s-4.46018 1.701502-6.16168 0c-1.70151-1.701502-1.70151-4.460182 0-6.161684 1.7015-1.701502 4.46018-1.701502 6.16168 0zm753.9615-25.626794c4.72415.918282 7.80942 5.492381 6.89114 10.216534-.91828 4.724154-5.49238 7.809422-10.21654 6.89114-4.72415-.918283-7.80942-5.492381-6.89114-10.216535.91829-4.724153 5.49238-7.809421 10.21654-6.891139zm-250.10938 6.842829c.91828 4.724153-2.16699 9.298252-6.89114 10.216534-4.72416.918283-9.29826-2.166986-10.21654-6.891139-.91828-4.724154 2.16699-9.298252 6.89114-10.216535 4.72415-.918282 9.29825 2.166986 10.21654 6.89114zm-306.89443-1.43523c2.01837 2.992354 1.2288 7.054346-1.76355 9.072714-2.99236 2.018368-7.05435 1.228797-9.07272-1.763557-2.01837-2.992353-1.2288-7.054346 1.76356-9.072714 2.99235-2.018368 7.05434-1.228796 9.07271 1.763557zm862.38229-2.137733c2.99235 2.018368 3.78192 6.08036 1.76355 9.072714-2.01836 2.992354-6.08036 3.781925-9.07271 1.763557s-3.78193-6.080361-1.76356-9.072714c2.01837-2.992354 6.08036-3.781925 9.07272-1.763557zm-435.5837-16.745307c4.81257 0 8.71394 3.901363 8.71394 8.713937s-3.90137 8.713936-8.71394 8.713936-8.71394-3.901362-8.71394-8.713936 3.90137-8.713937 8.71394-8.713937zm-268.10426 1.247086c1.57747 3.904373-.30886 8.348285-4.21324 9.925754-3.90437 1.577469-8.34828-.308859-9.92575-4.213233-1.57747-3.904373.30886-8.348285 4.21323-9.925754 3.90438-1.577469 8.34829.308859 9.92576 4.213233zm546.48277-4.2547c3.87625 1.645369 5.68474 6.121525 4.03937 9.997773-1.64537 3.876249-6.12153 5.684733-9.99778 4.039363s-5.68473-6.121525-4.03936-9.997774c1.64537-3.876248 6.12152-5.684732 9.99777-4.039362zm-736.81566-23.413092c1.68198 2.493628 1.024 5.878621-1.46963 7.560595-2.49363 1.681973-5.87862 1.023997-7.56059-1.469631-1.68198-2.493628-1.024-5.878622 1.46963-7.560595s5.87862-1.023997 7.56059 1.469631zm924.56599-2.072975c2.49363 1.681974 3.1516 5.066967 1.46963 7.560595s-5.06697 3.151604-7.5606 1.469631c-2.49362-1.681973-3.1516-5.066967-1.46963-7.560595 1.68198-2.493628 5.06697-3.151604 7.5606-1.469631zm-323.88756-15.898483c4.13364.803497 6.83325 4.805833 6.02975 8.939468-.8035 4.133634-4.80583 6.833244-8.93947 6.029747-4.13363-.803497-6.83324-4.805833-6.02974-8.939468.80349-4.133634 4.80583-6.833244 8.93946-6.029747zm-275.52505 5.869418c.80349 4.133635-1.89612 8.135971-6.02975 8.939468-4.13364.803497-8.13597-1.896113-8.93947-6.029747-.8035-4.133635 1.89611-8.13597 6.02975-8.939468 4.13363-.803497 8.13597 1.896113 8.93947 6.029747zm133.2631-19.363559c4.211 0 7.62469 3.413692 7.62469 7.624694 0 4.211003-3.41369 7.624695-7.62469 7.624695s-7.6247-3.413692-7.6247-7.624695c0-4.211002 3.4137-7.624694 7.6247-7.624694zm300.29522 2.394304c3.32249 1.410317 4.87262 5.247021 3.46231 8.56952-1.41032 3.322498-5.24702 4.872628-8.56952 3.462311s-4.87263-5.247022-3.46231-8.56952c1.41031-3.322499 5.24702-4.872628 8.56952-3.462311zm-591.76529 3.491405c1.35211 3.346606-.26474 7.155673-3.61135 8.50779-3.3466 1.352116-7.15567-.264737-8.50779-3.611343-1.35211-3.346606.26474-7.155673 3.61135-8.507789 3.3466-1.352117 7.15567.264736 8.50779 3.611342zm-197.75371-18.579734c1.34558 1.994902.81919 4.702897-1.17571 6.048476s-4.70289.819198-6.04847-1.175705c-1.34558-1.994902-.8192-4.702897 1.1757-6.048476 1.9949-1.345578 4.7029-.819198 6.04848 1.175705zm984.61787-1.333396c1.99491 1.345579 2.52129 4.053574 1.17571 6.048476s-4.05357 2.521283-6.04848 1.175705c-1.9949-1.345579-2.52128-4.053574-1.1757-6.048476 1.34558-1.994903 4.05357-2.521284 6.04847-1.175705zm-342.55306-27.539412c3.54311.688712 5.85706 4.119285 5.16835 7.662401-.68871 3.543115-4.11928 5.857066-7.6624 5.168354-3.54311-.688712-5.85707-4.119285-5.16835-7.662401.68871-3.543115 4.11928-5.857066 7.6624-5.168354zm-297.82124 4.377622c.68871 3.543116-1.62524 6.973689-5.16835 7.662401-3.54312.688712-6.97369-1.625239-7.6624-5.168354-.68871-3.543116 1.62524-6.973689 5.16835-7.662401 3.54312-.688712 6.97369 1.625239 7.6624 5.168354zm465.71447-10.094242c2.76875 1.175264 4.06052 4.372518 2.88526 7.141267-1.17527 2.768749-4.37252 4.060523-7.14127 2.885259s-4.06052-4.372518-2.88526-7.141267c1.17527-2.768748 4.37252-4.060523 7.14127-2.885259zm-633.92831 2.209726c1.12677 2.788838-.22061 5.963061-3.00945 7.089825s-5.96306-.220614-7.08982-3.009452c-1.12677-2.788838.22061-5.963061 3.00945-7.089825 2.78884-1.126763 5.96306.220614 7.08982 3.009452zm313.01694-11.82489c3.60943 0 6.53545 2.926021 6.53545 6.535452s-2.92602 6.535452-6.53545 6.535452-6.53545-2.926021-6.53545-6.535452 2.92602-6.535452 6.53545-6.535452zm-156.9895-33.880298c.57392 2.952596-1.35437 5.811407-4.30697 6.385334-2.95259.573926-5.8114-1.354367-6.38533-4.306963s1.35437-5.811407 4.30696-6.385334c2.9526-.573926 5.81141 1.354367 6.38534 4.306963zm320.43028-4.861204c2.95259.573927 4.88088 3.432738 4.30696 6.385334-.57393 2.952596-3.43274 4.880889-6.38534 4.306962-2.95259-.573926-4.88088-3.432738-4.30696-6.385334.57393-2.952596 3.43274-4.880889 6.38534-4.306962zm177.7532-.333402c2.21499.940211 3.24841 3.498014 2.3082 5.713013s-3.49801 3.248419-5.71301 2.308208c-2.215-.940212-3.24842-3.498015-2.30821-5.713014s3.49802-3.248418 5.71302-2.308207zm-676.24776 1.915735c.90141 2.231071-.17649 4.770449-2.40756 5.67186s-4.77045-.176491-5.67186-2.407562c-.90141-2.23107.17649-4.770449 2.40756-5.67186s4.77045.176491 5.67186 2.407562zm335.55149-17.607637c3.00786 0 5.44621 2.438351 5.44621 5.44621s-2.43835 5.44621-5.44621 5.44621-5.44621-2.438351-5.44621-5.44621 2.43835-5.44621 5.44621-5.44621zm173.88409-34.928482c2.36208.459141 3.90471 2.74619 3.44557 5.108267s-2.74619 3.904711-5.10827 3.445569c-2.36207-.459141-3.90471-2.74619-3.44557-5.108267s2.74619-3.904711 5.10827-3.445569zm-342.72646 3.369408c.45914 2.362076-1.08349 4.649126-3.44557 5.108267-2.36207.459141-4.64912-1.083493-5.10826-3.44557s1.08349-4.649126 3.44557-5.108267c2.36207-.459141 4.64912 1.083493 5.10826 3.44557zm168.87078-20.244667c2.40629 0 4.35697 1.950681 4.35697 4.356968s-1.95068 4.356968-4.35697 4.356968-4.35697-1.950681-4.35697-4.356968 1.95068-4.356968 4.35697-4.356968z" fill="url(#a)" fill-rule="evenodd" opacity=".4" transform="matrix(.98768834 -.15643447 .15643447 .98768834 -1030.22155 81.506582)"/></svg>