<svg height="30" viewBox="0 0 72 30" width="72" xmlns="http://www.w3.org/2000/svg" xmlns:xlink="http://www.w3.org/1999/xlink"><mask id="a" fill="#fff"><path d="m0 30h72v-29.413h-72z" fill="#fff" fill-rule="evenodd"/></mask><g fill="#fff" fill-rule="evenodd" transform="translate(0 -1)"><path d="m30.1016 8.7611v-5.764h1.69v2.704l1.645-2.704h1.949l-1.779 2.508 2.072 3.256h-1.974l-1.095-1.93-.818 1.076v.854z"/><path d="m36.538 8.7608h1.689v-5.764h-1.689z"/><path d="m39.6494 8.7611v-5.764h1.468l2.09 2.909v-2.909h1.69v5.764h-1.468l-2.09-2.864v2.864z"/><path d="m46.3232 8.7611v-5.764h4.581v1.432h-2.891v.703h2.776v1.414h-2.776v.783h2.998v1.432z"/><g transform="translate(0 .4128)"><path d="m34.2734 13.5788 1.076 1.183c-.593.658-1.385.987-2.375.987-.901 0-1.635-.286-2.201-.858-.567-.572-.85-1.282-.85-2.13 0-.842.283-1.548.85-2.118.566-.569 1.3-.854 2.201-.854.907 0 1.64.279 2.197.837l-1.111 1.147c-.297-.302-.635-.453-1.015-.453-.379 0-.701.136-.965.409-.264.272-.396.617-.396 1.032 0 .426.128.776.383 1.049s.581.409.978.409c.499 0 .908-.213 1.228-.64"/><path d="m37.5957 12.7604c0 .427.124.777.373 1.05.249.272.566.408.952.408.392 0 .712-.136.961-.408.249-.273.373-.623.373-1.05 0-.421-.124-.767-.373-1.037-.249-.269-.569-.404-.961-.404-.368 0-.68.136-.938.409s-.387.617-.387 1.032m-1.761 0c0-.836.287-1.541.863-2.113.575-.572 1.316-.858 2.223-.858s1.651.286 2.229.858.867 1.277.867 2.113c0 .848-.288 1.558-.863 2.13-.576.573-1.32.859-2.233.859-.907 0-1.648-.286-2.223-.859-.576-.572-.863-1.282-.863-2.13"/><path d="m43.1836 15.6422v-5.764h1.468l2.091 2.909v-2.909h1.689v5.764h-1.468l-2.09-2.864v2.864z"/><path d="m53.9541 13.5788 1.076 1.183c-.594.658-1.385.987-2.375.987-.901 0-1.636-.286-2.202-.858-.565-.572-.849-1.282-.849-2.13 0-.842.284-1.548.849-2.118.566-.569 1.301-.854 2.202-.854.907 0 1.64.279 2.197.837l-1.112 1.147c-.296-.302-.635-.453-1.014-.453s-.701.136-.964.409c-.265.272-.397.617-.397 1.032 0 .426.128.776.383 1.049s.581.409.978.409c.499 0 .908-.213 1.228-.64"/><path d="m55.9111 15.6422v-5.764h4.581v1.432h-2.892v.703h2.776v1.414h-2.776v.783h2.998v1.432z"/><path d="m63.5215 13.0006h.89c.249 0 .453-.082.613-.245s.24-.363.24-.6-.08-.437-.24-.6c-.16-.164-.361-.245-.605-.245h-.898zm-1.69 2.642v-5.765h2.544c.854 0 1.513.216 1.979.645.466.431.698.975.698 1.633s-.234 1.202-.702 1.632c-.469.43-1.13.645-1.984.645h-.845v1.21z"/><path d="m68.5039 15.6422v-4.332h-1.166v-1.432h4.661v1.432h-1.806v4.332z"/><path d="m29.9233 20.0543c0-.842.283-1.548.85-2.117.566-.57 1.3-.854 2.201-.854.907 0 1.64.279 2.198.836l-1.112 1.148c-.297-.303-.635-.454-1.014-.454-.38 0-.702.136-.966.409-.263.273-.396.617-.396 1.032 0 .427.128.777.383 1.05.255.272.581.409.979.409.332 0 .658-.109.978-.329v-.526h-.792v-.996h2.251v2.234c-.244.355-.586.636-1.028.84-.442.205-.924.306-1.445.306-.907 0-1.649-.285-2.224-.857s-.863-1.283-.863-2.131"/><path d="m38.6777 21.277c.163.157.376.236.637.236.26 0 .472-.079.635-.236.164-.156.246-.398.246-.725v-3.379h1.689v3.477c0 .766-.238 1.356-.716 1.771-.477.415-1.095.622-1.854.622-.76 0-1.378-.207-1.855-.622-.478-.415-.716-1.005-.716-1.771v-3.477h1.69v3.379c0 .327.081.569.244.725"/><path d="m43.29 22.937h1.69v-5.764h-1.69z" mask="url(#a)"/><path d="m45.8926 21.735 1.121-.934c.131.273.286.46.467.561s.408.151.681.151c.296 0 .524-.086.685-.257.159-.172.239-.416.239-.73v-3.353h1.691v3.299c0 .83-.226 1.467-.676 1.909-.451.441-1.101.662-1.948.662-.481 0-.922-.104-1.325-.311-.404-.208-.715-.54-.935-.997" mask="url(#a)"/><path d="m52.1709 22.9362v-5.764h4.581v1.432h-2.891v.703h2.776v1.414h-2.776v.783h2.997v1.432z" mask="url(#a)"/><path d="m58.0918 22.9362v-5.764h1.689v2.704l1.647-2.704h1.947l-1.778 2.508 2.072 3.256h-1.974l-1.095-1.93-.819 1.076v.854z" mask="url(#a)"/><path d="m46.323 1.624h4.581v-1.037h-4.581z" mask="url(#a)"/><path d="m16.8501 11.8756h-1.232v1.77h6.919c-.223 2.624-1.422 4.972-3.233 6.68l-7.733-7.61 7.69-7.571 1.261-1.243c-.429-.404-.89-.78-1.38-1.123l-1.287 1.266-10.666 10.503v-2.483-8.434c1.481-.812 3.18-1.274 4.984-1.274 1.391 0 2.77.285 4.043.82l1.351-1.33c-1.667-.825-3.522-1.26-5.394-1.26-6.712 0-12.173 5.461-12.173 12.174 0 3.396 1.4 6.47 3.651 8.68v-2.727c-1.184-1.688-1.882-3.739-1.882-5.953 0-3.161 1.419-5.995 3.651-7.905v7.23 8.579 2.218c1.933 1.295 4.256 2.051 6.753 2.051 1.96 0 3.811-.468 5.453-1.294l-1.344-1.323c-1.261.545-2.65.847-4.109.847-1.804 0-3.503-.462-4.984-1.273v-4.86l3.121-3.073 8.881 8.739c3.116-2.206 5.155-5.837 5.155-9.936 0-.297-.011-.592-.033-.885h-1.775z" mask="url(#a)"/><path d="m30.102 29.181h.364v-3.048h-.364z" mask="url(#a)"/><path d="m32.5464 27.4381v1.743h-.346v-1.624c0-.227-.154-.383-.386-.383-.246 0-.41.183-.41.378v1.629h-.345v-2.275h.345v.278h.018c.078-.2.283-.332.542-.332.346 0 .582.236.582.586" mask="url(#a)"/><path d="m33.0073 28.5846v-.091h.336v.082c0 .214.155.36.383.36.218 0 .377-.141.377-.351 0-.587-1.074-.25-1.074-1.109 0-.392.283-.623.683-.623.414 0 .691.24.691.604v.091h-.341v-.077c0-.192-.14-.319-.346-.319-.209 0-.345.127-.345.324 0 .577 1.073.213 1.073 1.096 0 .405-.282.664-.714.664-.436 0-.723-.259-.723-.651" mask="url(#a)"/><path d="m35.4727 27.2155v1.406c0 .146.096.241.241.241h.182v.319h-.268c-.301 0-.501-.192-.501-.478v-1.488h-.322v-.31h.227c.072 0 .118-.044.118-.118v-.472h.323v.59h.446v.31z" mask="url(#a)"/><path d="m36.386 29.181h.345v-2.275h-.345zm-.046-2.948c0-.132.087-.219.219-.219s.223.087.223.219-.091.223-.223.223-.219-.091-.219-.223z" mask="url(#a)"/><path d="m37.8438 27.2155v1.406c0 .146.096.241.241.241h.182v.319h-.269c-.3 0-.5-.192-.5-.478v-1.488h-.323v-.31h.228c.072 0 .118-.044.118-.118v-.472h.323v.59h.445v.31z" mask="url(#a)"/><path d="m40.1924 26.9059v2.275h-.346v-.268h-.023c-.072.191-.264.323-.514.323-.337 0-.564-.232-.564-.578v-1.752h.345v1.634c0 .222.147.373.36.373.237 0 .396-.173.396-.368v-1.639z" mask="url(#a)"/><path d="m41.3086 27.2155v1.406c0 .146.096.241.241.241h.182v.319h-.269c-.3 0-.5-.192-.5-.478v-1.488h-.323v-.31h.228c.072 0 .118-.044.118-.118v-.472h.323v.59h.445v.31z" mask="url(#a)"/><path d="m44.3018 28.526v-.965c0-.2-.169-.387-.419-.387-.236 0-.395.156-.395.392v.955c0 .236.159.392.395.392.25 0 .419-.187.419-.387zm.346-2.529v3.184h-.346v-.277h-.022c-.069.195-.278.332-.538.332-.354 0-.6-.251-.6-.619v-1.147c0-.368.246-.618.6-.618.26 0 .469.136.538.332h.022v-1.187z" mask="url(#a)"/><path d="m45.4932 27.5524v.337h.814v-.337c0-.236-.164-.392-.405-.392-.245 0-.409.156-.409.392zm0 .619v.363c0 .233.159.392.414.392.236 0 .4-.154.4-.392v-.045h.346v.05c0 .418-.305.697-.746.697-.464 0-.76-.283-.76-.705v-.974c0-.424.301-.705.755-.705.45 0 .751.286.751.709v.61z" mask="url(#a)"/><path d="m50.6934 27.4342v1.747h-.347v-1.634c0-.227-.145-.373-.363-.373-.232 0-.392.173-.392.369v1.638h-.345v-1.634c0-.222-.146-.373-.365-.373-.231 0-.39.173-.39.369v1.638h-.346v-2.275h.346v.268h.017c.074-.186.265-.322.519-.322.26 0 .455.141.533.363h.014c.077-.209.281-.363.559-.363.328 0 .56.227.56.582" mask="url(#a)"/><path d="m52.332 28.5895v-.418h-.369c-.273 0-.459.154-.459.4 0 .232.159.386.404.386.265 0 .424-.173.424-.368m.346-1.087v1.679h-.332v-.25h-.028c-.073.185-.25.304-.509.304-.392 0-.656-.259-.656-.655 0-.414.283-.687.705-.687h.474v-.373c0-.209-.15-.35-.392-.35-.213 0-.373.141-.373.35v.073h-.34v-.091c0-.387.291-.65.718-.65.442 0 .733.263.733.65" mask="url(#a)"/><path d="m53.1357 28.5846v-.091h.337v.082c0 .214.154.36.382.36.218 0 .378-.141.378-.351 0-.587-1.075-.25-1.075-1.109 0-.392.283-.623.683-.623.414 0 .691.24.691.604v.091h-.34v-.077c0-.192-.142-.319-.346-.319-.21 0-.346.127-.346.324 0 .577 1.073.213 1.073 1.096 0 .405-.282.664-.713.664-.437 0-.724-.259-.724-.651" mask="url(#a)"/><path d="m54.9922 28.5846v-.091h.336v.082c0 .214.155.36.383.36.218 0 .377-.141.377-.351 0-.587-1.074-.25-1.074-1.109 0-.392.283-.623.683-.623.414 0 .691.24.691.604v.091h-.341v-.077c0-.192-.141-.319-.346-.319-.209 0-.346.127-.346.324 0 .577 1.074.213 1.074 1.096 0 .405-.282.664-.714.664-.437 0-.723-.259-.723-.651" mask="url(#a)"/><path d="m58.0234 28.526v-.965c0-.236-.164-.39-.405-.39-.25 0-.409.154-.409.39v.965c0 .236.159.392.409.392.241 0 .405-.156.405-.392m-1.16.005v-.974c0-.424.3-.705.755-.705.45 0 .751.281.751.705v.974c0 .423-.301.705-.751.705-.455 0-.755-.282-.755-.705" mask="url(#a)"/><path d="m59.4219 27.2155v1.406c0 .146.096.241.241.241h.182v.319h-.269c-.3 0-.5-.192-.5-.478v-1.488h-.323v-.31h.228c.073 0 .118-.044.118-.118v-.472h.323v.59h.446v.31z" mask="url(#a)"/><path d="m61.8223 27.4381v1.743h-.346v-1.624c0-.227-.154-.383-.386-.383-.246 0-.41.183-.41.378v1.629h-.345v-3.184h.345v1.187h.018c.078-.2.282-.332.542-.332.346 0 .582.236.582.586" mask="url(#a)"/><path d="m62.6514 27.5524v.337h.814v-.337c0-.236-.164-.392-.405-.392-.245 0-.409.156-.409.392zm0 .619v.363c0 .233.159.392.414.392.236 0 .4-.154.4-.392v-.045h.346v.05c0 .418-.305.697-.746.697-.464 0-.76-.283-.76-.705v-.974c0-.424.301-.705.755-.705.451 0 .751.286.751.709v.61z" mask="url(#a)"/><path d="m65.2607 26.8522v.386h-.077c-.337 0-.532.246-.532.51v1.433h-.346v-2.275h.346v.332h.017c.078-.24.269-.386.529-.386z" mask="url(#a)"/><path d="m66.7773 28.5895v-.418h-.369c-.273 0-.459.154-.459.4 0 .232.159.386.404.386.265 0 .424-.173.424-.368m.346-1.087v1.679h-.332v-.25h-.028c-.073.185-.25.304-.509.304-.392 0-.656-.259-.656-.655 0-.414.283-.687.705-.687h.474v-.373c0-.209-.15-.35-.392-.35-.213 0-.373.141-.373.35v.073h-.34v-.091c0-.387.291-.65.718-.65.442 0 .733.263.733.65" mask="url(#a)"/><path d="m68.8125 27.5661c0-.236-.159-.392-.4-.392-.246 0-.414.187-.414.387v.965c0 .2.168.387.414.387.241 0 .4-.156.4-.392zm.346-.096v1.147c0 .368-.242.619-.606.619-.259 0-.459-.132-.537-.332h-.017v1.096h-.346v-3.094h.346v.278h.017c.078-.2.278-.332.537-.332.364 0 .606.25.606.618z" mask="url(#a)"/><path d="m69.662 29.181h.346v-2.275h-.346zm-.045-2.948c0-.132.086-.219.218-.219s.223.087.223.219-.091.223-.223.223-.218-.091-.218-.223z" mask="url(#a)"/><path d="m62.465 26.362h1.186v-.253h-1.186z" mask="url(#a)"/><path d="m70.8398 27.5524v.337h.814v-.337c0-.236-.164-.392-.405-.392-.245 0-.409.156-.409.392zm0 .619v.363c0 .233.159.392.414.392.236 0 .4-.154.4-.392v-.045h.346v.05c0 .418-.305.697-.746.697-.464 0-.76-.283-.76-.705v-.974c0-.424.3-.705.755-.705.45 0 .751.286.751.709v.61z" mask="url(#a)"/></g></g></svg>