<svg width="18" height="24" xmlns="http://www.w3.org/2000/svg"><path d="M12.2 13v7.245c0 .66.45 1.095 1.14 1.095.675 0 1.125-.435 1.125-1.095V13h2.07v7.29c0 1.77-1.275 2.94-3.195 2.94s-3.195-1.17-3.195-2.94V13H12.2zm-9.815 0l2.07 6.165h.15l-.09-.705V13H6.57v10.05h-2.4l-2.055-6.165h-.15l.09.705v5.46H0V13h2.385zM2.85 0l1.29 5.205h.135L5.55 0h2.775v10.05H6.27V3.945l.09-.705h-.15l-1.29 4.8H3.405l-1.29-4.8h-.15l.09.705v6.105H0V0h2.85zM17.3 0v1.89h-3.24v2.16h2.76v1.86h-2.76v2.25h3.24v1.89h-5.295V0H17.3z" fill="#FFF" fill-rule="nonzero"/></svg>